<?xml version="1.0" encoding="iso-8859-1"?>
<!-- Generator: Adobe Illustrator 19.1.0, SVG Export Plug-In . SVG Version: 6.00 Build 0)  -->
<svg version="1.1" id="Layer_1" xmlns="http://www.w3.org/2000/svg" xmlns:xlink="http://www.w3.org/1999/xlink" x="0px" y="0px"
	 viewBox="0 0 50 50" style="enable-background:new 0 0 50 50;" xml:space="preserve">
<g>
	<g>
		<circle style="fill:#231F20;" cx="25" cy="25" r="25"/>
	</g>
	<g>
		<path style="fill:#FFFFFF;" d="M25,42.067c-0.552,0-1-0.447-1-1v-33c0-0.552,0.448-1,1-1s1,0.448,1,1v33
			C26,41.619,25.552,42.067,25,42.067z"/>
	</g>
	<g>
		<path style="fill:#FFFFFF;" d="M25,42.406c-0.265,0-0.52-0.105-0.707-0.293L10.621,28.441c-0.391-0.391-0.391-1.023,0-1.414
			s1.023-0.391,1.414,0L25,39.992l12.966-12.966c0.391-0.391,1.023-0.391,1.414,0s0.391,1.023,0,1.414L25.707,42.114
			C25.52,42.301,25.265,42.406,25,42.406z"/>
	</g>
</g>
</svg>
