
<svg version="1.1" id="Layer_1" xmlns="http://www.w3.org/2000/svg" xmlns:xlink="http://www.w3.org/1999/xlink" x="0px" y="0px"
	 viewBox="0 0 1001 774.056" style="enable-background:new 0 0 1001 774.056;" xml:space="preserve">
<path style="fill:none;stroke:#7F8C8D;stroke-miterlimit:10;" d="M973.189,682.07c15.083,0,27.291-12.226,27.291-27.308h0.02V27.808
	C1000.48,12.714,988.262,0.5,973.189,0.5H27.811C12.728,0.5,0.51,12.714,0.51,27.808L0.5,654.762
	c0.01,15.083,12.228,27.308,27.311,27.308H973.189z"/>
<path style="fill:none;stroke:#7F8C8D;stroke-miterlimit:10;" d="M606.798,682.078c0.597,15.344,5.22,25.383,15.786,35.136h0.015
	c8.993,8.348,17.385,10.872,22.624,17.138c5.01,5.708,9.286,15.718,9.809,39.205H345.955c0.533-23.487,4.8-33.496,9.804-39.205
	c5.254-6.265,13.636-8.79,22.639-17.138c10.577-9.755,15.214-19.794,15.811-35.143L606.798,682.078z"/>
</svg>
