<svg version="1.1"  xmlns="http://www.w3.org/2000/svg" xmlns:xlink="http://www.w3.org/1999/xlink" x="0px" y="0px"
	 viewBox="0 0 600 400" style="enable-background:new 0 0 600 400;" xml:space="preserve">
<g>
	<rect style="fill:none;" width="200" height="200"/>
	<rect x="200" style="fill:none;" width="200" height="200"/>
	<rect x="400" style="fill:none;" width="200" height="200"/>
	<rect y="200" style="fill:none;" width="200" height="200"/>
	<rect x="200" y="200" style="fill:none;" width="200" height="200"/>
	<rect x="400" y="200" style="fill:none;" width="200" height="200"/>
	<g>
		<defs>
			<path id="SVGID_1_" d="M243.296,254.042l45.158-25.96c7.149-4.11,15.943-4.11,23.092,0l45.158,25.96
				c7.189,4.133,11.621,11.793,11.621,20.085v51.746c0,8.292-4.432,15.952-11.621,20.085l-45.158,25.96
				c-7.149,4.11-15.943,4.11-23.092,0l-45.158-25.96c-7.189-4.133-11.621-11.793-11.621-20.085v-51.746
				C231.675,265.835,236.107,258.175,243.296,254.042z"/>
		</defs>
		<clipPath id="SVGID_2_">
			<use xlink:href="#SVGID_1_"  style="overflow:visible;"/>
		</clipPath>
		<g style="clip-path:url(#SVGID_2_);">
			<g>
				<rect x="224" y="224" style="fill:#00B5C1;" width="152" height="152"/>
			</g>
			<g style="opacity:0.6;">
				<g>
					<path style="fill:#2C3F51;" d="M376,281.438V376h-80l-47.776-47.777l-0.049-0.049c-0.018-0.015-0.035-0.033-0.051-0.051
						l-0.029-0.029h0.001l13.285-8.967l5.637-3.805h0.001l81.141-54.764l4.155-2.804c0,0,0.001,0,0.001,0.001L376,281.438z"/>
				</g>
				<g>
					<path style="fill:#2C3F51;" d="M376,281.438V376h-80l-47.776-47.777l-0.049-0.049c-0.018-0.015-0.035-0.033-0.051-0.051
						l-0.029-0.029h0.001l13.285-8.967l5.637-3.805h0.001l81.141-54.764l4.155-2.804c0,0,0.001,0,0.001,0.001L376,281.438z"/>
				</g>
			</g>
			<g>
				<g>
					<path style="fill:#FFFFFF;" d="M308.595,343.687l9.024,0.03l-5.919-4.119l0,0c-0.263-0.53-0.331-0.98-0.491-1.338
						c-0.415-0.934-1.142-11.417-1.142-11.417h-10.275h-10.275c0,0-0.727,10.483-1.142,11.417c-0.159,0.358-0.228,0.808-0.491,1.338
						l0,0l-5.919,4.119c0,0,4.53-0.015,9.023-0.03c4.24,0.083,8.803-0.03,8.803-0.03h0
						C299.792,343.657,304.355,343.77,308.595,343.687z"/>
				</g>
				<g>
					<path style="fill:#FFFFFF;" d="M352.727,319.127v6.913c0,1.648-1.335,2.983-2.983,2.983h-99.487
						c-1.648,0-2.983-1.335-2.983-2.983v-6.913H352.727z"/>
				</g>
				<g>
					<path style="fill:#FFFFFF;" d="M352.727,259.266v59.861H247.273v-59.861c0-1.648,1.335-2.983,2.983-2.983h99.487
						C351.392,256.283,352.727,257.617,352.727,259.266z"/>
				</g>
				<g>
					<rect x="251.425" y="260.312" style="fill:#2C3F51;" width="96.735" height="55.01"/>
				</g>
				<g>
					<circle style="fill:#263544;" cx="300" cy="258.444" r="0.69"/>
				</g>
				<rect x="253.647" y="263.687" style="fill:#F39C12;" width="91.875" height="26.311"/>
				<rect x="253.647" y="293.622" style="fill:#32C8F4;" width="28.111" height="18.625"/>
				<rect x="285.737" y="293.622" style="fill:#32C8F4;" width="28.111" height="18.625"/>
				<rect x="317.411" y="293.622" style="fill:#32C8F4;" width="28.111" height="18.625"/>
				<g>
					<rect x="247.273" y="318.684" style="fill:#263544;" width="105.453" height="0.887"/>
				</g>
				<g style="opacity:0.6;">
					<polygon style="fill:#6D6D6D;" points="348.16,260.557 348.16,315.322 267.019,315.322 					"/>
				</g>
			</g>
		</g>
	</g>
	<g>
		<defs>
			<path id="SVGID_3_" d="M443.296,254.042l45.158-25.96c7.149-4.11,15.943-4.11,23.092,0l45.158,25.96
				c7.189,4.133,11.621,11.793,11.621,20.085v51.746c0,8.292-4.432,15.952-11.621,20.085l-45.158,25.96
				c-7.149,4.11-15.943,4.11-23.092,0l-45.158-25.96c-7.189-4.133-11.621-11.793-11.621-20.085v-51.746
				C431.675,265.835,436.107,258.175,443.296,254.042z"/>
		</defs>
		<clipPath id="SVGID_4_">
			<use xlink:href="#SVGID_3_"  style="overflow:visible;"/>
		</clipPath>
		<g style="clip-path:url(#SVGID_4_);">
			<rect x="420" y="220" style="fill:#00B5C1;" width="160" height="160"/>
			<path style="opacity:0.6;fill:#2C3F51;" d="M580,318.342l-48.698-48.698c2.731,3.198,4.941,6.77,6.585,10.658
				c2.145,5.071,3.232,10.455,3.232,16.006c0,5.551-1.087,10.935-3.232,16.006c-2.07,4.896-5.035,9.294-8.811,13.07
				s-8.174,6.741-13.07,8.811c-5.071,2.145-10.455,3.232-16.006,3.232c-5.55,0-10.935-1.087-16.006-3.232
				c-3.495-1.478-6.735-3.414-9.678-5.774l51.58,51.58H580V318.342z"/>
			<g>
				<path style="fill:#F9F8F7;" d="M537.925,296.308c0,20.912-17.013,37.925-37.925,37.925s-37.925-17.013-37.925-37.925
					c0-20.912,17.013-37.925,37.925-37.925S537.925,275.396,537.925,296.308z"/>
				<rect x="498.667" y="325.477" style="fill:#404148;" width="2.665" height="7.54"/>
				<rect x="529.138" y="294.857" style="fill:#404148;" width="7.54" height="2.665"/>
				<rect x="498.667" y="259.532" style="fill:#404148;" width="2.665" height="7.54"/>
				<path style="fill:#404148;" d="M537.887,280.302c-2.07-4.896-5.035-9.294-8.811-13.07s-8.174-6.74-13.07-8.811
					c-5.071-2.145-10.455-3.232-16.006-3.232c-5.55,0-10.935,1.087-16.006,3.232c-4.896,2.071-9.294,5.035-13.07,8.811
					s-6.74,8.174-8.811,13.07c-2.145,5.071-3.232,10.455-3.232,16.006c0,5.551,1.087,10.935,3.232,16.006
					c2.071,4.896,5.035,9.294,8.811,13.07s8.174,6.741,13.07,8.811c5.071,2.145,10.457,3.232,16.006,3.232
					c5.551,0,10.935-1.087,16.006-3.232c4.896-2.07,9.294-5.035,13.07-8.811s6.741-8.174,8.811-13.07
					c2.145-5.071,3.232-10.455,3.232-16.006C541.119,290.757,540.032,285.372,537.887,280.302z M500,334.233
					c-20.912,0-37.925-17.013-37.925-37.925c0-20.912,17.013-37.925,37.925-37.925s37.925,17.013,37.925,37.925
					C537.925,317.22,520.912,334.233,500,334.233z"/>
				<rect x="463.347" y="294.857" style="fill:#404148;" width="7.54" height="2.665"/>
				<path style="fill:#404148;" d="M504.561,296.416c-0.047,0.046-0.099,0.08-0.149,0.122c0.11,0.394,0.174,0.809,0.174,1.239
					c0,2.533-2.054,4.586-4.586,4.586c-2.533,0-4.585-2.054-4.585-4.586c0-0.349,0.043-0.689,0.116-1.015l-17.812-17.813
					c-0.819-0.817-0.819-2.145,0-2.963l0.03-0.03c0.819-0.819,2.146-0.819,2.963,0l17.572,17.571c0.53-0.214,1.11-0.335,1.716-0.335
					c0.541,0,1.056,0.098,1.537,0.27c0.012-0.013,0.019-0.026,0.031-0.038l12.782-12.782c0.819-0.819,2.145-0.819,2.963,0l0.03,0.03
					c0.819,0.819,0.819,2.146,0,2.963L504.561,296.416z"/>
				<path style="fill:#FF6F6F;" d="M510.029,327.06l-8.822-27.026c0.831-0.435,1.399-1.305,1.399-2.308
					c0-1.439-1.166-2.605-2.605-2.605s-2.605,1.166-2.605,2.605c0,1.439,1.166,2.605,2.605,2.605c0.175,0,0.345-0.018,0.51-0.051
					l8.816,27.008c0.046,0.139,0.24,0.201,0.433,0.138C509.954,327.364,510.074,327.2,510.029,327.06z"/>
			</g>
		</g>
	</g>
	<g>
		<defs>
			<path id="SVGID_5_" d="M43.296,254.042l45.158-25.96c7.149-4.11,15.943-4.11,23.092,0l45.158,25.96
				c7.189,4.133,11.621,11.793,11.621,20.085v51.746c0,8.292-4.432,15.952-11.621,20.085l-45.158,25.96
				c-7.149,4.11-15.943,4.11-23.092,0l-45.158-25.96c-7.189-4.133-11.621-11.793-11.621-20.085v-51.746
				C31.675,265.835,36.107,258.175,43.296,254.042z"/>
		</defs>
		<clipPath id="SVGID_6_">
			<use xlink:href="#SVGID_5_"  style="overflow:visible;"/>
		</clipPath>
		<g style="clip-path:url(#SVGID_6_);">
			<rect x="24" y="224" style="fill:#00B5C1;" width="152" height="152"/>
		</g>
		<polygon style="opacity:0.6;clip-path:url(#SVGID_6_);fill:#2C3F51;" points="176,304.489 176,376 101.355,376 77.3,351.945 
			122.805,251.294 		"/>
		<g style="clip-path:url(#SVGID_6_);">
			<g>
				<path style="fill:#FFFFFF;" d="M118.367,249.63H82.284c-3.728,0-6.749,3.022-6.749,6.749v91.016
					c0,3.728,3.022,6.749,6.749,6.749h36.083c3.728,0,6.749-3.022,6.749-6.749v-91.016
					C125.116,252.651,122.095,249.63,118.367,249.63z"/>
			</g>
			<g>
				<path style="fill:#FFFFFF;" d="M75.325,272.086H75.18c-0.164,0-0.297,0.133-0.297,0.297v6.909c0,0.164,0.133,0.297,0.297,0.297
					h0.145c0.164,0,0.297-0.133,0.297-0.297v-6.909C75.621,272.218,75.488,272.086,75.325,272.086z"/>
			</g>
			<g>
				<path style="fill:#FFFFFF;" d="M75.325,281.674H75.18c-0.164,0-0.297,0.133-0.297,0.297v6.809c0,0.164,0.133,0.297,0.297,0.297
					h0.145c0.164,0,0.297-0.133,0.297-0.297v-6.809C75.621,281.807,75.488,281.674,75.325,281.674z"/>
			</g>
			<g>
				<path style="fill:#FFFFFF;" d="M75.325,262.994H75.18c-0.164,0-0.297,0.133-0.297,0.297v3.63c0,0.164,0.133,0.297,0.297,0.297
					h0.145c0.164,0,0.297-0.133,0.297-0.297v-3.63C75.621,263.127,75.488,262.994,75.325,262.994z"/>
			</g>
			<g>
				<rect x="77.847" y="260.964" style="fill:#2C3F51;" width="44.958" height="81.817"/>
			</g>
			<g>
				<ellipse style="fill:#263544;" cx="91.541" cy="256.075" rx="1.307" ry="1.32"/>
			</g>
			<g>
				<path style="fill:#263544;" d="M109.542,255.456h-12.77c-0.206,0-0.373,0.254-0.373,0.566v0.106
					c0,0.313,0.167,0.566,0.373,0.566h12.77c0.206,0,0.373-0.254,0.373-0.566v-0.106
					C109.915,255.709,109.748,255.456,109.542,255.456z"/>
			</g>
			<g>
				<path style="fill:#263544;" d="M100.326,352.198c-2.27,0-4.116-1.847-4.116-4.116c0-2.27,1.846-4.116,4.116-4.116
					c2.27,0,4.116,1.847,4.116,4.116C104.442,350.351,102.596,352.198,100.326,352.198z M100.326,344.472
					c-1.99,0-3.61,1.619-3.61,3.61s1.619,3.609,3.61,3.609s3.61-1.619,3.61-3.609S102.316,344.472,100.326,344.472z"/>
			</g>
			<g style="opacity:0.6;">
				<polygon style="fill:#6D6D6D;" points="122.805,260.964 122.805,342.78 81.327,342.78 118.432,260.964 				"/>
			</g>
		</g>
	</g>
	<g>
		<defs>
			<path id="SVGID_7_" d="M243.296,54.042l45.158-25.96c7.149-4.11,15.943-4.11,23.092,0l45.158,25.96
				c7.189,4.133,11.621,11.793,11.621,20.085v51.746c0,8.292-4.432,15.952-11.621,20.085l-45.158,25.96
				c-7.149,4.11-15.943,4.11-23.092,0l-45.158-25.96c-7.189-4.133-11.621-11.793-11.621-20.085V74.127
				C231.675,65.835,236.107,58.175,243.296,54.042z"/>
		</defs>
		<clipPath id="SVGID_8_">
			<use xlink:href="#SVGID_7_"  style="overflow:visible;"/>
		</clipPath>
		<g style="clip-path:url(#SVGID_8_);">
			<g>
				<rect x="223.792" y="23.25" style="fill:#ECF0F1;" width="152" height="152"/>
			</g>
			<g>
				<g>
					<path style="fill:#FFFFFF;" d="M308.595,143.687l9.024,0.03l-5.919-4.119l0,0c-0.263-0.53-0.331-0.98-0.491-1.338
						c-0.415-0.934-1.142-11.417-1.142-11.417h-10.275h-10.275c0,0-0.727,10.483-1.142,11.417c-0.159,0.358-0.228,0.808-0.491,1.338
						l0,0l-5.919,4.119c0,0,4.53-0.015,9.023-0.03c4.24,0.083,8.803-0.03,8.803-0.03h0
						C299.792,143.657,304.355,143.77,308.595,143.687z"/>
				</g>
				<g>
					<path style="fill:#FFFFFF;" d="M352.727,119.127v6.913c0,1.648-1.335,2.983-2.983,2.983h-99.487
						c-1.648,0-2.983-1.335-2.983-2.983v-6.913H352.727z"/>
				</g>
				<g>
					<path style="fill:#FFFFFF;" d="M352.727,59.266v59.861H247.273V59.266c0-1.648,1.335-2.983,2.983-2.983h99.487
						C351.392,56.283,352.727,57.617,352.727,59.266z"/>
				</g>
			</g>
			<g>
				<rect x="251.632" y="60.312" style="fill:#BDC3C7;" width="96.735" height="55.01"/>
			</g>
			<g>
				<circle style="fill:#BDC3C7;" cx="300" cy="58.444" r="0.69"/>
			</g>
			<g>
				<rect x="247.273" y="118.684" style="fill:#BDC3C7;" width="105.453" height="0.887"/>
			</g>
			<rect x="253.855" y="63.687" style="fill:none;stroke:#95A5A6;stroke-miterlimit:10;" width="91.875" height="26.311"/>
			<rect x="253.855" y="93.622" style="fill:none;stroke:#95A5A6;stroke-miterlimit:10;" width="28.111" height="18.625"/>
			<rect x="285.944" y="93.622" style="fill:none;stroke:#95A5A6;stroke-miterlimit:10;" width="28.111" height="18.625"/>
			<rect x="317.618" y="93.622" style="fill:none;stroke:#95A5A6;stroke-miterlimit:10;" width="28.111" height="18.625"/>
			<g>
				<line style="fill:none;stroke:#95A5A6;stroke-miterlimit:10;" x1="253.855" y1="93.622" x2="281.966" y2="112.247"/>
				<line style="fill:none;stroke:#95A5A6;stroke-miterlimit:10;" x1="281.966" y1="93.622" x2="253.855" y2="112.247"/>
			</g>
			<g>
				<line style="fill:none;stroke:#95A5A6;stroke-miterlimit:10;" x1="285.944" y1="93.622" x2="314.056" y2="112.247"/>
				<line style="fill:none;stroke:#95A5A6;stroke-miterlimit:10;" x1="314.056" y1="93.622" x2="285.944" y2="112.247"/>
			</g>
			<g>
				<line style="fill:none;stroke:#95A5A6;stroke-miterlimit:10;" x1="317.618" y1="93.622" x2="345.73" y2="112.247"/>
				<line style="fill:none;stroke:#95A5A6;stroke-miterlimit:10;" x1="345.73" y1="93.622" x2="317.618" y2="112.247"/>
			</g>
			<g>
				<line style="fill:none;stroke:#95A5A6;stroke-miterlimit:10;" x1="253.855" y1="63.687" x2="345.73" y2="89.997"/>
				<line style="fill:none;stroke:#95A5A6;stroke-miterlimit:10;" x1="345.73" y1="63.687" x2="253.855" y2="89.997"/>
			</g>
		</g>
	</g>
	<g>
		<defs>
			<path id="SVGID_9_" d="M443.296,54.042l45.158-25.96c7.149-4.11,15.943-4.11,23.092,0l45.158,25.96
				c7.189,4.133,11.621,11.793,11.621,20.085v51.746c0,8.292-4.432,15.952-11.621,20.085l-45.158,25.96
				c-7.149,4.11-15.943,4.11-23.092,0l-45.158-25.96c-7.189-4.133-11.621-11.793-11.621-20.085V74.127
				C431.675,65.835,436.107,58.175,443.296,54.042z"/>
		</defs>
		<clipPath id="SVGID_10_">
			<use xlink:href="#SVGID_9_"  style="overflow:visible;"/>
		</clipPath>
		<rect x="420" y="20" style="clip-path:url(#SVGID_10_);fill:#ECF0F1;" width="160" height="160"/>
		<g style="clip-path:url(#SVGID_10_);">
			<path style="fill:#F9F8F7;" d="M537.925,96.308c0,20.912-17.013,37.925-37.925,37.925s-37.925-17.013-37.925-37.925
				S479.088,58.383,500,58.383S537.925,75.396,537.925,96.308z"/>
			<rect x="498.667" y="125.477" style="fill:#BDC3C7;" width="2.665" height="7.54"/>
			<rect x="529.138" y="94.857" style="fill:#BDC3C7;" width="7.54" height="2.665"/>
			<rect x="498.667" y="59.532" style="fill:#BDC3C7;" width="2.665" height="7.54"/>
			<path style="fill:#BDC3C7;" d="M537.887,80.302c-2.07-4.896-5.035-9.294-8.811-13.07s-8.174-6.74-13.07-8.811
				c-5.071-2.145-10.455-3.232-16.006-3.232c-5.55,0-10.935,1.087-16.006,3.232c-4.896,2.071-9.294,5.035-13.07,8.811
				s-6.74,8.174-8.811,13.07c-2.145,5.071-3.232,10.455-3.232,16.006c0,5.551,1.087,10.935,3.232,16.006
				c2.071,4.896,5.035,9.294,8.811,13.07c3.776,3.776,8.174,6.741,13.07,8.811c5.071,2.145,10.457,3.232,16.006,3.232
				c5.551,0,10.935-1.087,16.006-3.232c4.896-2.07,9.294-5.035,13.07-8.811c3.776-3.776,6.741-8.174,8.811-13.07
				c2.145-5.071,3.232-10.455,3.232-16.006C541.119,90.757,540.032,85.372,537.887,80.302z M500,134.233
				c-20.912,0-37.925-17.013-37.925-37.925S479.088,58.383,500,58.383s37.925,17.013,37.925,37.925S520.912,134.233,500,134.233z"/>
			<rect x="463.347" y="94.857" style="fill:#BDC3C7;" width="7.54" height="2.665"/>
			<path style="fill:#BDC3C7;" d="M504.561,96.416c-0.047,0.046-0.099,0.08-0.149,0.122c0.11,0.394,0.174,0.809,0.174,1.239
				c0,2.533-2.054,4.586-4.586,4.586c-2.533,0-4.585-2.054-4.585-4.586c0-0.349,0.043-0.689,0.116-1.015l-17.812-17.813
				c-0.819-0.817-0.819-2.145,0-2.963l0.03-0.03c0.819-0.819,2.146-0.819,2.963,0l17.572,17.571c0.53-0.214,1.11-0.335,1.716-0.335
				c0.541,0,1.056,0.098,1.537,0.27c0.012-0.013,0.019-0.026,0.031-0.038l12.782-12.782c0.819-0.819,2.145-0.819,2.963,0l0.03,0.03
				c0.819,0.819,0.819,2.146,0,2.963L504.561,96.416z"/>
			<path style="fill:#95A5A6;" d="M510.029,127.06l-8.822-27.026c0.831-0.435,1.399-1.305,1.399-2.308
				c0-1.439-1.166-2.605-2.605-2.605s-2.605,1.166-2.605,2.605s1.166,2.605,2.605,2.605c0.175,0,0.345-0.018,0.51-0.051
				l8.816,27.008c0.046,0.139,0.24,0.201,0.433,0.138C509.954,127.364,510.074,127.2,510.029,127.06z"/>
		</g>
	</g>
	<g>
		<defs>
			<path id="SVGID_11_" d="M43.296,54.042l45.158-25.96c7.149-4.11,15.943-4.11,23.092,0l45.158,25.96
				c7.189,4.133,11.621,11.793,11.621,20.085v51.746c0,8.292-4.432,15.952-11.621,20.085l-45.158,25.96
				c-7.149,4.11-15.943,4.11-23.092,0l-45.158-25.96c-7.189-4.133-11.621-11.793-11.621-20.085V74.127
				C31.675,65.835,36.107,58.175,43.296,54.042z"/>
		</defs>
		<clipPath id="SVGID_12_">
			<use xlink:href="#SVGID_11_"  style="overflow:visible;"/>
		</clipPath>
		<g style="clip-path:url(#SVGID_12_);">
			<g>
				<rect x="24" y="24" style="fill:#ECF0F1;" width="152" height="152"/>
			</g>
			<g>
				<g>
					<g>
						<path style="fill:#FFFFFF;" d="M118.367,49.63H82.284c-3.728,0-6.749,3.022-6.749,6.749v91.016
							c0,3.728,3.022,6.749,6.749,6.749h36.083c3.728,0,6.749-3.022,6.749-6.749V56.379C125.116,52.651,122.095,49.63,118.367,49.63
							z"/>
					</g>
					<g>
						<path style="fill:#FFFFFF;" d="M75.325,72.086H75.18c-0.164,0-0.297,0.133-0.297,0.297v6.909c0,0.164,0.133,0.297,0.297,0.297
							h0.145c0.164,0,0.297-0.133,0.297-0.297v-6.909C75.621,72.218,75.488,72.086,75.325,72.086z"/>
					</g>
					<g>
						<path style="fill:#FFFFFF;" d="M75.325,81.674H75.18c-0.164,0-0.297,0.133-0.297,0.297v6.809c0,0.164,0.133,0.297,0.297,0.297
							h0.145c0.164,0,0.297-0.133,0.297-0.297v-6.809C75.621,81.807,75.488,81.674,75.325,81.674z"/>
					</g>
					<g>
						<path style="fill:#FFFFFF;" d="M75.325,62.994H75.18c-0.164,0-0.297,0.133-0.297,0.297v3.63c0,0.164,0.133,0.297,0.297,0.297
							h0.145c0.164,0,0.297-0.133,0.297-0.297v-3.63C75.621,63.127,75.488,62.994,75.325,62.994z"/>
					</g>
				</g>
				<g>
					<g>
						<rect x="77.847" y="60.964" style="fill:#BDC3C7;" width="44.958" height="81.817"/>
					</g>
					<g>
						<ellipse style="fill:#BDC3C7;" cx="91.541" cy="56.075" rx="1.307" ry="1.32"/>
					</g>
					<g>
						<path style="fill:#BDC3C7;" d="M109.542,55.456h-12.77c-0.206,0-0.373,0.254-0.373,0.566v0.106
							c0,0.313,0.167,0.566,0.373,0.566h12.77c0.206,0,0.373-0.254,0.373-0.566v-0.106
							C109.915,55.709,109.748,55.456,109.542,55.456z"/>
					</g>
					<g>
						<path style="fill:#BDC3C7;" d="M100.326,152.198c-2.27,0-4.116-1.847-4.116-4.116c0-2.27,1.846-4.116,4.116-4.116
							c2.27,0,4.116,1.847,4.116,4.116C104.442,150.351,102.596,152.198,100.326,152.198z M100.326,144.472
							c-1.99,0-3.61,1.619-3.61,3.61c0,1.99,1.619,3.609,3.61,3.609s3.61-1.619,3.61-3.609
							C103.935,146.092,102.316,144.472,100.326,144.472z"/>
					</g>
				</g>
			</g>
		</g>
	</g>
</g>
</svg>
