<?xml version="1.0" encoding="utf-8"?>
<!-- Generator: Adobe Illustrator 19.1.0, SVG Export Plug-In . SVG Version: 6.00 Build 0)  -->
<svg version="1.1" id="Layer_1" xmlns="http://www.w3.org/2000/svg" xmlns:xlink="http://www.w3.org/1999/xlink" x="0px" y="0px"
	 viewBox="-179 81 600 400" style="enable-background:new -179 81 600 400;" xml:space="preserve">
<style type="text/css">
	.st0{fill:none;}
	.st1{clip-path:url(#SVGID_2_);}
	.st2{fill:#00B5C1;}
	.st3{opacity:0.6;}
	.st4{fill:#2C3F51;}
	.st5{fill:#FFFFFF;}
	.st6{fill:#263544;}
	.st7{fill:#F39C12;}
	.st8{fill:#32C8F4;}
	.st9{clip-path:url(#SVGID_4_);}
	.st10{opacity:0.6;fill:#2C3F51;enable-background:new    ;}
	.st11{fill:#F9F8F7;}
	.st12{fill:#404148;}
	.st13{fill:#FF6F6F;}
	.st14{clip-path:url(#SVGID_6_);}
	.st15{opacity:0.6;clip-path:url(#SVGID_8_);fill:#2C3F51;enable-background:new    ;}
	.st16{clip-path:url(#SVGID_10_);}
	.st17{clip-path:url(#SVGID_12_);}
	.st18{fill:#ECF0F1;}
	.st19{fill:#BDC3C7;}
	.st20{fill:none;stroke:#95A5A6;stroke-miterlimit:10;}
	.st21{clip-path:url(#SVGID_14_);fill:#ECF0F1;}
	.st22{clip-path:url(#SVGID_16_);}
	.st23{fill:#95A5A6;}
	.st24{clip-path:url(#SVGID_18_);}
</style>
<g>
	<rect x="-179" y="81" class="st0" width="200" height="200"/>
	<rect x="21" y="81" class="st0" width="200" height="200"/>
	<rect x="221" y="81" class="st0" width="200" height="200"/>
	<rect x="-179" y="281" class="st0" width="200" height="200"/>
	<rect x="21" y="281" class="st0" width="200" height="200"/>
	<rect x="221" y="281" class="st0" width="200" height="200"/>
	<g>
		<g>
			<defs>
				<path id="SVGID_1_" d="M64.3,335l45.2-26c7.1-4.1,15.9-4.1,23.1,0l45.2,26c7.2,4.1,11.6,11.8,11.6,20.1v51.7
					c0,8.3-4.4,16-11.6,20.1l-45.2,26c-7.1,4.1-15.9,4.1-23.1,0l-45.2-26c-7.2-4.1-11.6-11.8-11.6-20.1v-51.7
					C52.7,346.8,57.1,339.2,64.3,335z"/>
			</defs>
			<clipPath id="SVGID_2_">
				<use xlink:href="#SVGID_1_"  style="overflow:visible;"/>
			</clipPath>
			<g class="st1">
				<g>
					<rect x="45" y="305" class="st2" width="152" height="152"/>
				</g>
				<g class="st3">
					<g>
						<path class="st4" d="M197,362.4V457h-80l-47.8-47.8l0,0c0,0,0,0-0.1-0.1l0,0h0l13.3-9l5.6-3.8h0l81.1-54.8l4.2-2.8
							c0,0,0,0,0,0L197,362.4z"/>
					</g>
					<g>
						<path class="st4" d="M197,362.4V457h-80l-47.8-47.8l0,0c0,0,0,0-0.1-0.1l0,0h0l13.3-9l5.6-3.8h0l81.1-54.8l4.2-2.8
							c0,0,0,0,0,0L197,362.4z"/>
					</g>
				</g>
				<g>
					<g>
						<path class="st5" d="M129.6,424.7l9,0l-5.9-4.1l0,0c-0.3-0.5-0.3-1-0.5-1.3c-0.4-0.9-1.1-11.4-1.1-11.4h-10.3h-10.3
							c0,0-0.7,10.5-1.1,11.4c-0.2,0.4-0.2,0.8-0.5,1.3l0,0l-5.9,4.1c0,0,4.5,0,9,0c4.2,0.1,8.8,0,8.8,0l0,0
							C120.8,424.7,125.4,424.8,129.6,424.7z"/>
					</g>
					<g>
						<path class="st5" d="M173.7,400.1v6.9c0,1.6-1.3,3-3,3H71.3c-1.6,0-3-1.3-3-3v-6.9H173.7z"/>
					</g>
					<g>
						<path class="st5" d="M173.7,340.3v59.9H68.3v-59.9c0-1.6,1.3-3,3-3h99.5C172.4,337.3,173.7,338.6,173.7,340.3z"/>
					</g>
					<g>
						<rect x="72.4" y="341.3" class="st4" width="96.7" height="55"/>
					</g>
					<g>
						<circle class="st6" cx="121" cy="339.4" r="0.7"/>
					</g>
					<rect x="74.6" y="344.7" class="st7" width="91.9" height="26.3"/>
					<rect x="74.6" y="374.6" class="st8" width="28.1" height="18.6"/>
					<rect x="106.7" y="374.6" class="st8" width="28.1" height="18.6"/>
					<rect x="138.4" y="374.6" class="st8" width="28.1" height="18.6"/>
					<g>
						<rect x="68.3" y="399.7" class="st6" width="105.5" height="0.9"/>
					</g>
				</g>
			</g>
		</g>
	</g>
	<g>
		<g>
			<defs>
				<path id="SVGID_3_" d="M264.3,335l45.2-26c7.1-4.1,15.9-4.1,23.1,0l45.2,26c7.2,4.1,11.6,11.8,11.6,20.1v51.7
					c0,8.3-4.4,16-11.6,20.1l-45.2,26c-7.1,4.1-15.9,4.1-23.1,0l-45.2-26c-7.2-4.1-11.6-11.8-11.6-20.1v-51.7
					C252.7,346.8,257.1,339.2,264.3,335z"/>
			</defs>
			<clipPath id="SVGID_4_">
				<use xlink:href="#SVGID_3_"  style="overflow:visible;"/>
			</clipPath>
			<g class="st9">
				<rect x="241" y="301" class="st2" width="160" height="160"/>
				<path class="st10" d="M401,399.3l-48.7-48.7c2.7,3.2,4.9,6.8,6.6,10.7c2.1,5.1,3.2,10.5,3.2,16c0,5.6-1.1,10.9-3.2,16
					c-2.1,4.9-5,9.3-8.8,13.1s-8.2,6.7-13.1,8.8c-5.1,2.1-10.5,3.2-16,3.2c-5.5,0-10.9-1.1-16-3.2c-3.5-1.5-6.7-3.4-9.7-5.8
					l51.6,51.6H401V399.3z"/>
				<g>
					<path class="st11" d="M358.9,377.3c0,20.9-17,37.9-37.9,37.9s-37.9-17-37.9-37.9s17-37.9,37.9-37.9S358.9,356.4,358.9,377.3z"
						/>
					<rect x="319.7" y="406.5" class="st12" width="2.7" height="7.5"/>
					<rect x="350.1" y="375.9" class="st12" width="7.5" height="2.7"/>
					<rect x="319.7" y="340.5" class="st12" width="2.7" height="7.5"/>
					<path class="st12" d="M358.9,361.3c-2.1-4.9-5-9.3-8.8-13.1s-8.2-6.7-13.1-8.8c-5.1-2.1-10.5-3.2-16-3.2
						c-5.5,0-10.9,1.1-16,3.2c-4.9,2.1-9.3,5-13.1,8.8s-6.7,8.2-8.8,13.1c-2.1,5.1-3.2,10.5-3.2,16c0,5.6,1.1,10.9,3.2,16
						c2.1,4.9,5,9.3,8.8,13.1s8.2,6.7,13.1,8.8c5.1,2.1,10.5,3.2,16,3.2c5.6,0,10.9-1.1,16-3.2c4.9-2.1,9.3-5,13.1-8.8
						s6.7-8.2,8.8-13.1c2.1-5.1,3.2-10.5,3.2-16S361,366.4,358.9,361.3z M321,415.2c-20.9,0-37.9-17-37.9-37.9s17-37.9,37.9-37.9
						s37.9,17,37.9,37.9S341.9,415.2,321,415.2z"/>
					<rect x="284.3" y="375.9" class="st12" width="7.5" height="2.7"/>
					<path class="st12" d="M325.6,377.4c0,0-0.1,0.1-0.1,0.1c0.1,0.4,0.2,0.8,0.2,1.2c0,2.5-2.1,4.6-4.6,4.6c-2.5,0-4.6-2.1-4.6-4.6
						c0-0.3,0-0.7,0.1-1l-17.8-17.8c-0.8-0.8-0.8-2.1,0-3l0,0c0.8-0.8,2.1-0.8,3,0l17.6,17.6c0.5-0.2,1.1-0.3,1.7-0.3
						c0.5,0,1.1,0.1,1.5,0.3c0,0,0,0,0,0l12.8-12.8c0.8-0.8,2.1-0.8,3,0l0,0c0.8,0.8,0.8,2.1,0,3L325.6,377.4z"/>
					<path class="st13" d="M331,408.1l-8.8-27c0.8-0.4,1.4-1.3,1.4-2.3c0-1.4-1.2-2.6-2.6-2.6s-2.6,1.2-2.6,2.6
						c0,1.4,1.2,2.6,2.6,2.6c0.2,0,0.3,0,0.5-0.1l8.8,27c0,0.1,0.2,0.2,0.4,0.1C331,408.4,331.1,408.2,331,408.1z"/>
				</g>
			</g>
		</g>
	</g>
	<g>
		<g>
			<defs>
				<path id="SVGID_5_" d="M-135.7,335l45.2-26c7.1-4.1,15.9-4.1,23.1,0l45.2,26c7.2,4.1,11.6,11.8,11.6,20.1v51.7
					c0,8.3-4.4,16-11.6,20.1l-45.2,26c-7.1,4.1-15.9,4.1-23.1,0l-45.2-26c-7.2-4.1-11.6-11.8-11.6-20.1v-51.7
					C-147.3,346.8-142.9,339.2-135.7,335z"/>
			</defs>
			<clipPath id="SVGID_6_">
				<use xlink:href="#SVGID_5_"  style="overflow:visible;"/>
			</clipPath>
			<g class="st14">
				<rect x="-155" y="305" class="st2" width="152" height="152"/>
			</g>
		</g>
		<g>
			<defs>
				<path id="SVGID_7_" d="M-135.7,335l45.2-26c7.1-4.1,15.9-4.1,23.1,0l45.2,26c7.2,4.1,11.6,11.8,11.6,20.1v51.7
					c0,8.3-4.4,16-11.6,20.1l-45.2,26c-7.1,4.1-15.9,4.1-23.1,0l-45.2-26c-7.2-4.1-11.6-11.8-11.6-20.1v-51.7
					C-147.3,346.8-142.9,339.2-135.7,335z"/>
			</defs>
			<clipPath id="SVGID_8_">
				<use xlink:href="#SVGID_7_"  style="overflow:visible;"/>
			</clipPath>
			<polygon class="st15" points="-3,385.5 -3,457 -77.6,457 -101.7,432.9 -56.2,332.3 			"/>
		</g>
		<g>
			<defs>
				<path id="SVGID_9_" d="M-135.7,335l45.2-26c7.1-4.1,15.9-4.1,23.1,0l45.2,26c7.2,4.1,11.6,11.8,11.6,20.1v51.7
					c0,8.3-4.4,16-11.6,20.1l-45.2,26c-7.1,4.1-15.9,4.1-23.1,0l-45.2-26c-7.2-4.1-11.6-11.8-11.6-20.1v-51.7
					C-147.3,346.8-142.9,339.2-135.7,335z"/>
			</defs>
			<clipPath id="SVGID_10_">
				<use xlink:href="#SVGID_9_"  style="overflow:visible;"/>
			</clipPath>
			<g class="st16">
				<g>
					<path class="st5" d="M-60.6,330.6h-36.1c-3.7,0-6.7,3-6.7,6.7v91c0,3.7,3,6.7,6.7,6.7h36.1c3.7,0,6.7-3,6.7-6.7v-91
						C-53.9,333.7-56.9,330.6-60.6,330.6z"/>
				</g>
				<g>
					<path class="st5" d="M-103.7,353.1h-0.1c-0.2,0-0.3,0.1-0.3,0.3v6.9c0,0.2,0.1,0.3,0.3,0.3h0.1c0.2,0,0.3-0.1,0.3-0.3v-6.9
						C-103.4,353.2-103.5,353.1-103.7,353.1z"/>
				</g>
				<g>
					<path class="st5" d="M-103.7,362.7h-0.1c-0.2,0-0.3,0.1-0.3,0.3v6.8c0,0.2,0.1,0.3,0.3,0.3h0.1c0.2,0,0.3-0.1,0.3-0.3V363
						C-103.4,362.8-103.5,362.7-103.7,362.7z"/>
				</g>
				<g>
					<path class="st5" d="M-103.7,344h-0.1c-0.2,0-0.3,0.1-0.3,0.3v3.6c0,0.2,0.1,0.3,0.3,0.3h0.1c0.2,0,0.3-0.1,0.3-0.3v-3.6
						C-103.4,344.1-103.5,344-103.7,344z"/>
				</g>
				<g>
					<rect x="-101.2" y="342" class="st4" width="45" height="81.8"/>
				</g>
				<g>
					<ellipse class="st6" cx="-87.5" cy="337.1" rx="1.3" ry="1.3"/>
				</g>
				<g>
					<path class="st6" d="M-69.5,336.5h-12.8c-0.2,0-0.4,0.3-0.4,0.6v0.1c0,0.3,0.2,0.6,0.4,0.6h12.8c0.2,0,0.4-0.3,0.4-0.6V337
						C-69.1,336.7-69.3,336.5-69.5,336.5z"/>
				</g>
				<g>
					<path class="st6" d="M-78.7,433.2c-2.3,0-4.1-1.8-4.1-4.1c0-2.3,1.8-4.1,4.1-4.1s4.1,1.8,4.1,4.1
						C-74.6,431.4-76.4,433.2-78.7,433.2z M-78.7,425.5c-2,0-3.6,1.6-3.6,3.6s1.6,3.6,3.6,3.6s3.6-1.6,3.6-3.6
						S-76.7,425.5-78.7,425.5z"/>
				</g>
			</g>
		</g>
	</g>
	<g>
		<g>
			<defs>
				<path id="SVGID_11_" d="M64.3,135l45.2-26c7.1-4.1,15.9-4.1,23.1,0l45.2,26c7.2,4.1,11.6,11.8,11.6,20.1v51.7
					c0,8.3-4.4,16-11.6,20.1l-45.2,26c-7.1,4.1-15.9,4.1-23.1,0l-45.2-26c-7.2-4.1-11.6-11.8-11.6-20.1v-51.7
					C52.7,146.8,57.1,139.2,64.3,135z"/>
			</defs>
			<clipPath id="SVGID_12_">
				<use xlink:href="#SVGID_11_"  style="overflow:visible;"/>
			</clipPath>
			<g class="st17">
				<g>
					<rect x="44.8" y="104.3" class="st18" width="152" height="152"/>
				</g>
				<g>
					<g>
						<path class="st5" d="M129.6,224.7l9,0l-5.9-4.1l0,0c-0.3-0.5-0.3-1-0.5-1.3c-0.4-0.9-1.1-11.4-1.1-11.4h-10.3h-10.3
							c0,0-0.7,10.5-1.1,11.4c-0.2,0.4-0.2,0.8-0.5,1.3l0,0l-5.9,4.1c0,0,4.5,0,9,0c4.2,0.1,8.8,0,8.8,0l0,0
							C120.8,224.7,125.4,224.8,129.6,224.7z"/>
					</g>
					<g>
						<path class="st5" d="M173.7,200.1v6.9c0,1.6-1.3,3-3,3H71.3c-1.6,0-3-1.3-3-3v-6.9C68.3,200.1,173.7,200.1,173.7,200.1z"/>
					</g>
					<g>
						<path class="st5" d="M173.7,140.3v59.9H68.3v-59.9c0-1.6,1.3-3,3-3h99.5C172.4,137.3,173.7,138.6,173.7,140.3z"/>
					</g>
				</g>
				<g>
					<rect x="72.6" y="141.3" class="st19" width="96.7" height="55"/>
				</g>
				<g>
					<circle class="st19" cx="121" cy="139.4" r="0.7"/>
				</g>
				<g>
					<rect x="68.3" y="199.7" class="st19" width="105.5" height="0.9"/>
				</g>
				<rect x="74.9" y="144.7" class="st20" width="91.9" height="26.3"/>
				<rect x="74.9" y="174.6" class="st20" width="28.1" height="18.6"/>
				<rect x="106.9" y="174.6" class="st20" width="28.1" height="18.6"/>
				<rect x="138.6" y="174.6" class="st20" width="28.1" height="18.6"/>
				<g>
					<line class="st20" x1="74.9" y1="174.6" x2="103" y2="193.2"/>
					<line class="st20" x1="103" y1="174.6" x2="74.9" y2="193.2"/>
				</g>
				<g>
					<line class="st20" x1="106.9" y1="174.6" x2="135.1" y2="193.2"/>
					<line class="st20" x1="135.1" y1="174.6" x2="106.9" y2="193.2"/>
				</g>
				<g>
					<line class="st20" x1="138.6" y1="174.6" x2="166.7" y2="193.2"/>
					<line class="st20" x1="166.7" y1="174.6" x2="138.6" y2="193.2"/>
				</g>
				<g>
					<line class="st20" x1="74.9" y1="144.7" x2="166.7" y2="171"/>
					<line class="st20" x1="166.7" y1="144.7" x2="74.9" y2="171"/>
				</g>
			</g>
		</g>
	</g>
	<g>
		<g>
			<defs>
				<path id="SVGID_13_" d="M264.3,135l45.2-26c7.1-4.1,15.9-4.1,23.1,0l45.2,26c7.2,4.1,11.6,11.8,11.6,20.1v51.7
					c0,8.3-4.4,16-11.6,20.1l-45.2,26c-7.1,4.1-15.9,4.1-23.1,0l-45.2-26c-7.2-4.1-11.6-11.8-11.6-20.1v-51.7
					C252.7,146.8,257.1,139.2,264.3,135z"/>
			</defs>
			<clipPath id="SVGID_14_">
				<use xlink:href="#SVGID_13_"  style="overflow:visible;"/>
			</clipPath>
			<rect x="241" y="101" class="st21" width="160" height="160"/>
		</g>
		<g>
			<defs>
				<path id="SVGID_15_" d="M264.3,135l45.2-26c7.1-4.1,15.9-4.1,23.1,0l45.2,26c7.2,4.1,11.6,11.8,11.6,20.1v51.7
					c0,8.3-4.4,16-11.6,20.1l-45.2,26c-7.1,4.1-15.9,4.1-23.1,0l-45.2-26c-7.2-4.1-11.6-11.8-11.6-20.1v-51.7
					C252.7,146.8,257.1,139.2,264.3,135z"/>
			</defs>
			<clipPath id="SVGID_16_">
				<use xlink:href="#SVGID_15_"  style="overflow:visible;"/>
			</clipPath>
			<g class="st22">
				<path class="st11" d="M358.9,177.3c0,20.9-17,37.9-37.9,37.9s-37.9-17-37.9-37.9s17-37.9,37.9-37.9S358.9,156.4,358.9,177.3z"/>
				<rect x="319.7" y="206.5" class="st19" width="2.7" height="7.5"/>
				<rect x="350.1" y="175.9" class="st19" width="7.5" height="2.7"/>
				<rect x="319.7" y="140.5" class="st19" width="2.7" height="7.5"/>
				<path class="st19" d="M358.9,161.3c-2.1-4.9-5-9.3-8.8-13.1s-8.2-6.7-13.1-8.8c-5.1-2.1-10.5-3.2-16-3.2c-5.5,0-10.9,1.1-16,3.2
					c-4.9,2.1-9.3,5-13.1,8.8s-6.7,8.2-8.8,13.1c-2.1,5.1-3.2,10.5-3.2,16c0,5.6,1.1,10.9,3.2,16c2.1,4.9,5,9.3,8.8,13.1
					c3.8,3.8,8.2,6.7,13.1,8.8c5.1,2.1,10.5,3.2,16,3.2c5.6,0,10.9-1.1,16-3.2c4.9-2.1,9.3-5,13.1-8.8c3.8-3.8,6.7-8.2,8.8-13.1
					c2.1-5.1,3.2-10.5,3.2-16S361,166.4,358.9,161.3z M321,215.2c-20.9,0-37.9-17-37.9-37.9s17-37.9,37.9-37.9s37.9,17,37.9,37.9
					S341.9,215.2,321,215.2z"/>
				<rect x="284.3" y="175.9" class="st19" width="7.5" height="2.7"/>
				<path class="st19" d="M325.6,177.4c0,0-0.1,0.1-0.1,0.1c0.1,0.4,0.2,0.8,0.2,1.2c0,2.5-2.1,4.6-4.6,4.6c-2.5,0-4.6-2.1-4.6-4.6
					c0-0.3,0-0.7,0.1-1l-17.8-17.8c-0.8-0.8-0.8-2.1,0-3l0,0c0.8-0.8,2.1-0.8,3,0l17.6,17.6c0.5-0.2,1.1-0.3,1.7-0.3
					c0.5,0,1.1,0.1,1.5,0.3c0,0,0,0,0,0l12.8-12.8c0.8-0.8,2.1-0.8,3,0l0,0c0.8,0.8,0.8,2.1,0,3L325.6,177.4z"/>
				<path class="st23" d="M331,208.1l-8.8-27c0.8-0.4,1.4-1.3,1.4-2.3c0-1.4-1.2-2.6-2.6-2.6s-2.6,1.2-2.6,2.6s1.2,2.6,2.6,2.6
					c0.2,0,0.3,0,0.5-0.1l8.8,27c0,0.1,0.2,0.2,0.4,0.1C331,208.4,331.1,208.2,331,208.1z"/>
			</g>
		</g>
	</g>
	<g>
		<g>
			<defs>
				<path id="SVGID_17_" d="M-135.7,135l45.2-26c7.1-4.1,15.9-4.1,23.1,0l45.2,26c7.2,4.1,11.6,11.8,11.6,20.1v51.7
					c0,8.3-4.4,16-11.6,20.1l-45.2,26c-7.1,4.1-15.9,4.1-23.1,0l-45.2-26c-7.2-4.1-11.6-11.8-11.6-20.1v-51.7
					C-147.3,146.8-142.9,139.2-135.7,135z"/>
			</defs>
			<clipPath id="SVGID_18_">
				<use xlink:href="#SVGID_17_"  style="overflow:visible;"/>
			</clipPath>
			<g class="st24">
				<g>
					<rect x="-155" y="105" class="st18" width="152" height="152"/>
				</g>
				<g>
					<g>
						<g>
							<path class="st5" d="M-60.6,130.6h-36.1c-3.7,0-6.7,3-6.7,6.7v91c0,3.7,3,6.7,6.7,6.7h36.1c3.7,0,6.7-3,6.7-6.7v-91
								C-53.9,133.7-56.9,130.6-60.6,130.6z"/>
						</g>
						<g>
							<path class="st5" d="M-103.7,153.1h-0.1c-0.2,0-0.3,0.1-0.3,0.3v6.9c0,0.2,0.1,0.3,0.3,0.3h0.1c0.2,0,0.3-0.1,0.3-0.3v-6.9
								C-103.4,153.2-103.5,153.1-103.7,153.1z"/>
						</g>
						<g>
							<path class="st5" d="M-103.7,162.7h-0.1c-0.2,0-0.3,0.1-0.3,0.3v6.8c0,0.2,0.1,0.3,0.3,0.3h0.1c0.2,0,0.3-0.1,0.3-0.3V163
								C-103.4,162.8-103.5,162.7-103.7,162.7z"/>
						</g>
						<g>
							<path class="st5" d="M-103.7,144h-0.1c-0.2,0-0.3,0.1-0.3,0.3v3.6c0,0.2,0.1,0.3,0.3,0.3h0.1c0.2,0,0.3-0.1,0.3-0.3v-3.6
								C-103.4,144.1-103.5,144-103.7,144z"/>
						</g>
					</g>
					<g>
						<g>
							<rect x="-101.2" y="142" class="st19" width="45" height="81.8"/>
						</g>
						<g>
							<ellipse class="st19" cx="-87.5" cy="137.1" rx="1.3" ry="1.3"/>
						</g>
						<g>
							<path class="st19" d="M-69.5,136.5h-12.8c-0.2,0-0.4,0.3-0.4,0.6v0.1c0,0.3,0.2,0.6,0.4,0.6h12.8c0.2,0,0.4-0.3,0.4-0.6V137
								C-69.1,136.7-69.3,136.5-69.5,136.5z"/>
						</g>
						<g>
							<path class="st19" d="M-78.7,233.2c-2.3,0-4.1-1.8-4.1-4.1c0-2.3,1.8-4.1,4.1-4.1s4.1,1.8,4.1,4.1
								C-74.6,231.4-76.4,233.2-78.7,233.2z M-78.7,225.5c-2,0-3.6,1.6-3.6,3.6c0,2,1.6,3.6,3.6,3.6s3.6-1.6,3.6-3.6
								C-75.1,227.1-76.7,225.5-78.7,225.5z"/>
						</g>
					</g>
				</g>
			</g>
		</g>
	</g>
</g>
</svg>
