<svg version="1.1"  xmlns="http://www.w3.org/2000/svg" xmlns:xlink="http://www.w3.org/1999/xlink" x="0px" y="0px"
	 viewBox="0 0 151 51" style="enable-background:new 0 0 151 51;" xml:space="preserve">
<g>
	<rect x="0.5" y="0.5" style="fill:none;" width="50" height="50"/>
	<rect x="50.5" y="0.5" style="fill:none;" width="50" height="50"/>
	<rect x="100.5" y="0.5" style="fill:none;" width="50" height="50"/>
	<g>
		<path style="fill:#bcc2c6;" d="M136.006,34.356c-0.461-1.517-4.19-3.572-5.924-4.328c-0.118-0.051-0.253-0.049-0.368,0.007
			l-4.204,2.032l-3.768-2.024c-0.113-0.061-0.248-0.069-0.368-0.022c-1.51,0.588-5.918,2.649-6.359,4.354
			c-0.315,1.217-0.44,1.814-0.446,1.839c-0.006,0.03-0.009,0.06-0.009,0.09c0,0.598,0.301,0.881,0.553,1.013
			c0.371,0.194,0.816,0.178,1.275,0.169c0.098-0.002,0.199-0.004,0.3-0.004h17.626c0.132,0,0.264,0.005,0.39,0.009
			c0.129,0.005,0.254,0.009,0.373,0.009c0.337,0,1.364,0,1.364-1.138C136.44,35.901,136.397,35.643,136.006,34.356z M135.076,36.619
			c-0.109,0-0.223-0.004-0.341-0.008c-0.137-0.005-0.279-0.01-0.421-0.01h-17.626c-0.107,0-0.213-0.002-0.317,0
			c-0.094,0.002-0.187,0-0.276,0c-0.001,0-0.002,0-0.003,0c-0.121,0-0.434,0.003-0.571-0.068c-0.027-0.014-0.072-0.034-0.079-0.186
			c0.036-0.164,0.166-0.747,0.426-1.751c0.257-0.995,3.392-2.774,5.638-3.679l3.785,2.033c0.124,0.067,0.273,0.07,0.4,0.009
			l4.223-2.041c2.482,1.115,5.002,2.883,5.249,3.695c0.376,1.238,0.395,1.417,0.395,1.75
			C135.559,36.565,135.559,36.619,135.076,36.619z"/>
		<path style="fill:#bcc2c6;" d="M120.874,24.843c0.238,0.594,0.509,1.02,0.794,1.468c0.08,0.127,0.162,0.255,0.245,0.39
			c0.286,0.469,0.576,0.821,0.899,1.087c-0.022,0.434-0.076,0.968-0.173,1.365c-0.058,0.236,0.086,0.475,0.323,0.533
			c0.236,0.058,0.475-0.086,0.533-0.323c0.132-0.536,0.193-1.268,0.207-1.775c0.004-0.149-0.067-0.289-0.189-0.374
			c-0.301-0.208-0.57-0.517-0.847-0.972c-0.085-0.14-0.17-0.273-0.253-0.404c-0.305-0.48-0.57-0.895-0.794-1.518
			c-0.058-0.162-0.227-0.277-0.399-0.291c-0.043-0.003-0.159-0.073-0.222-0.187c-0.445-0.816-0.635-2.064-0.552-2.318
			c0.011-0.007,0.061-0.024,0.168-0.023c0.125,0.01,0.24-0.043,0.326-0.13c0.086-0.086,0.132-0.205,0.128-0.326
			c-0.093-2.528,0.837-3.887,1.635-4.582c0.146-0.128,0.192-0.336,0.112-0.513c-0.005-0.012-0.011-0.023-0.017-0.035
			c0.375-0.253,1.007-0.236,1.015-0.234l0.024-0.44l0.363-0.25c-0.029-0.066,0.03-0.228,0.113-0.375
			c0.25,0.209,0.584,0.358,0.897,0.445c0.905,0.251,1.562,0.509,1.969,0.688c1.878,0.744,2.9,2.675,2.803,5.296
			c-0.004,0.118,0.039,0.233,0.12,0.319c0.081,0.086,0.193,0.136,0.312,0.138c0.081,0.002,0.123,0.018,0.12,0.01
			c0.095,0.269-0.096,1.518-0.541,2.334c-0.063,0.115-0.177,0.186-0.221,0.192c-0.161,0.022-0.297,0.131-0.353,0.284
			c-0.228,0.616-0.505,1.05-0.798,1.51c-0.089,0.139-0.179,0.281-0.27,0.429c-0.267,0.439-0.51,0.735-0.765,0.931
			c-0.109,0.084-0.172,0.214-0.171,0.352c0.003,0.401,0.036,1.177,0.224,1.869c0.054,0.196,0.231,0.325,0.425,0.325
			c0.039,0,0.077-0.005,0.116-0.016c0.235-0.064,0.373-0.307,0.309-0.541c-0.137-0.502-0.178-1.083-0.189-1.438
			c0.275-0.251,0.534-0.582,0.803-1.023c0.087-0.143,0.174-0.279,0.26-0.414c0.275-0.431,0.559-0.876,0.803-1.475
			c0.242-0.109,0.462-0.312,0.599-0.562c0.513-0.941,0.809-2.452,0.598-3.049c-0.085-0.241-0.258-0.417-0.496-0.514
			c-0.004-2.792-1.245-4.935-3.351-5.769c-0.418-0.184-1.118-0.46-2.074-0.725c-0.42-0.116-0.623-0.307-0.644-0.343
			c-0.019-0.118-0.086-0.223-0.184-0.291c-0.098-0.068-0.22-0.094-0.337-0.07c-0.385,0.077-0.721,0.592-0.854,0.92
			c-0.055,0.136-0.09,0.269-0.104,0.397c-0.583,0.082-1.4,0.363-1.626,1.185c-0.026,0.074-0.034,0.154-0.021,0.231
			c-0.764,0.854-1.492,2.245-1.495,4.441c-0.267,0.09-0.461,0.273-0.552,0.534c-0.212,0.596,0.084,2.106,0.598,3.047
			C120.37,24.533,120.611,24.742,120.874,24.843z"/>
	</g>
	<g>
		<path style="fill:#bcc2c6;" d="M35.104,23.241l-3.332,2.272v-4.59c0-0.247-0.2-0.448-0.448-0.448H19.675
			c-0.248,0-0.448,0.201-0.448,0.448v4.59l-3.332-2.272c-0.204-0.139-0.483-0.087-0.623,0.118c-0.14,0.205-0.087,0.483,0.118,0.623
			l8.376,5.711c0.486,0.331,1.11,0.497,1.733,0.497c0.623,0,1.247-0.166,1.733-0.497l8.376-5.711
			c0.204-0.139,0.257-0.418,0.118-0.623C35.588,23.154,35.309,23.102,35.104,23.241z M26.728,28.952
			c-0.666,0.454-1.79,0.454-2.456,0l-4.217-2.876c0.04-0.067,0.069-0.141,0.069-0.225v-4.48h10.753v4.48
			c0,0.084,0.029,0.158,0.069,0.225L26.728,28.952z"/>
		<path style="fill:#bcc2c6;" d="M36.915,21.522l-9.722-7.478C26.738,13.693,26.137,13.5,25.5,13.5
			c-0.637,0-1.238,0.193-1.693,0.544l-9.726,7.482c-0.386,0.296-0.678,0.904-0.678,1.413V35.26c0,1.235,1.005,2.24,2.24,2.24h19.714
			c1.235,0,2.24-1.005,2.24-2.24V22.939C37.597,22.43,37.304,21.821,36.915,21.522z M36.701,35.26c0,0.741-0.603,1.344-1.344,1.344
			H15.643c-0.741,0-1.344-0.603-1.344-1.344V22.939c0-0.228,0.162-0.576,0.327-0.703l9.726-7.482
			c0.296-0.227,0.714-0.358,1.147-0.358c0.434,0,0.852,0.13,1.148,0.358l9.722,7.478c0.167,0.129,0.332,0.479,0.332,0.707V35.26z"/>
		<path style="fill:#bcc2c6;" d="M28.636,23.163h-6.273c-0.248,0-0.448,0.201-0.448,0.448c0,0.247,0.2,0.448,0.448,0.448h6.273
			c0.248,0,0.448-0.201,0.448-0.448C29.084,23.363,28.884,23.163,28.636,23.163z"/>
		<path style="fill:#bcc2c6;" d="M28.636,24.955h-6.273c-0.248,0-0.448,0.201-0.448,0.448s0.2,0.448,0.448,0.448h6.273
			c0.248,0,0.448-0.201,0.448-0.448S28.884,24.955,28.636,24.955z"/>
	</g>
	<g>
		<path style="fill:#bcc2c6;" d="M87.649,33.357c-0.065-0.438-0.349-0.824-0.87-1.18l-5.367-3.673
			c-0.277-0.189-0.599-0.289-0.932-0.289c-0.518,0-1.004,0.245-1.301,0.657l-1.393,1.972c-0.109,0.153-0.135,0.341-0.142,0.523
			c-0.533,0.078-2.077,0.031-4.612-2.503c-2.451-2.447-3.611-4.247-3.461-5.358c0.027-0.013,0.047-0.04,0.071-0.058
			c0.128-0.035,0.245-0.079,0.34-0.153l1.924-1.457c0.686-0.518,0.821-1.525,0.299-2.248l-3.847-5.246
			c-0.74-1.008-1.61-1.113-2.545-0.311c-0.591,0.506-1.571,1.73-1.978,2.465c-0.223,0.394-0.315,0.801-0.276,1.21
			c-0.142,0.589-0.452,2.326,0.064,4.748c0.701,3.292,2.597,6.453,5.635,9.394c5.08,4.915,9.542,5.649,11.75,5.65h0
			c1.298,0,2.204-0.238,2.621-0.414c0.388,0.016,0.771-0.093,1.145-0.317c0.724-0.428,1.913-1.449,2.399-2.059
			C87.557,34.235,87.713,33.792,87.649,33.357z M86.465,34.143c-0.419,0.526-1.526,1.475-2.155,1.847
			c-0.085,0.051-0.169,0.088-0.253,0.119c-0.612-0.266-1.69-0.829-2.013-1.233c-0.156-0.195-0.442-0.227-0.638-0.071
			c-0.196,0.157-0.227,0.442-0.071,0.638c0.285,0.356,0.83,0.711,1.328,0.988c-0.398,0.086-0.951,0.162-1.655,0.162h0
			c-2.07,0-6.268-0.701-11.119-5.395c-6.917-6.696-5.603-12.686-5.431-13.346c0.015-0.059,0.019-0.121,0.01-0.181
			c-0.035-0.24,0.016-0.478,0.159-0.731c0.355-0.643,1.268-1.783,1.777-2.22c0.234-0.202,0.442-0.308,0.602-0.308
			c0.068,0,0.277,0,0.62,0.467l3.845,5.243c0.233,0.323,0.183,0.767-0.113,0.99l-1.903,1.444c-0.008,0.004-0.021,0.008-0.034,0.012
			c-0.502-0.385-1.188-0.966-1.405-1.297c-0.136-0.21-0.418-0.268-0.628-0.132c-0.21,0.137-0.269,0.418-0.132,0.628
			c0.293,0.45,1.001,1.044,1.454,1.4c-0.361,1.478,0.787,3.451,3.679,6.339c2.305,2.304,3.984,2.787,4.988,2.787
			c0.44,0,0.77-0.098,0.931-0.19c0.121-0.069,0.204-0.19,0.225-0.328c0.009-0.062,0.012-0.151,0.013-0.249
			c0.001-0.054,0.002-0.148,0.008-0.2l1.362-1.927c0.207-0.288,0.669-0.36,0.983-0.146l5.367,3.672
			c0.296,0.202,0.459,0.392,0.484,0.564C86.776,33.657,86.68,33.877,86.465,34.143z"/>
		<path style="fill:#bcc2c6;" d="M74.982,18.726c3.509,1.072,6.254,3.803,7.344,7.306c0.06,0.194,0.24,0.319,0.433,0.319
			c0.045,0,0.09-0.007,0.135-0.02c0.239-0.074,0.373-0.329,0.299-0.568c-1.179-3.79-4.15-6.745-7.946-7.904
			c-0.24-0.075-0.493,0.062-0.566,0.301C74.608,18.4,74.743,18.653,74.982,18.726z"/>
		<path style="fill:#bcc2c6;" d="M75.605,15.365c5.261,1.244,9.283,5.483,10.247,10.801c0.04,0.219,0.231,0.373,0.446,0.373
			c0.027,0,0.054-0.002,0.081-0.007c0.247-0.045,0.41-0.281,0.366-0.528c-1.028-5.672-5.319-10.195-10.931-11.522
			c-0.243-0.055-0.488,0.093-0.546,0.337C75.21,15.063,75.361,15.307,75.605,15.365z"/>
	</g>
</g>
</svg>
