<?xml version="1.0" encoding="utf-8"?>
<!-- Generator: Adobe Illustrator 18.1.1, SVG Export Plug-In . SVG Version: 6.00 Build 0)  -->
<svg version="1.1" id="Layer_1" xmlns="http://www.w3.org/2000/svg" xmlns:xlink="http://www.w3.org/1999/xlink" x="0px" y="0px"
	 viewBox="0 0 176.4 50" enable-background="new 0 0 176.4 50" xml:space="preserve">
<g>
	<g id="XMLID_2_">
		<g>
			<g>
				<path d="M72.4,13.9l4,16.3l0.4,1.7l0.3-1.7l4.2-16.7h4.2L79,36.2h-4.4l-4.5-16.7l-0.3-1.3l-0.3,1.2l-4.5,16.8h-4.5l-6.4-22.6
					h4.3l4.2,16.7l0.3,1.7l0.4-1.7l4.1-16.3H72.4z"/>
				<path d="M90.4,31.3l-1.6,4.9h-4.4l8.2-22.6h4.4l8.2,22.6h-4.6l-5.6-16.9l-0.3-1.2l-0.3,1.2l-2.7,8.1l-0.4,0.6l0.5-0.1h2.4
					c0.5,0,0.8,0.1,1.2,0.4c0.4,0.2,0.6,0.5,0.9,0.8c0.3,0.4,0.5,0.7,0.6,1c0.2,0.4,0.4,0.8,0.4,1.1L90.4,31.3L90.4,31.3L90.4,31.3
					L90.4,31.3z"/>
				<path d="M114.5,25.7v10.6h-4.3v-10l-7.8-12.6h4.9L114.5,25.7z M117.2,13.6h4.8l-6.6,10.9c-0.2-0.3-0.4-0.6-0.7-1
					c-0.2-0.4-0.4-0.9-0.6-1.4c-0.1-0.5-0.2-1-0.3-1.6c0-0.6,0.1-1.1,0.4-1.6L117.2,13.6z"/>
				<path d="M137.1,20c0,1-0.3,2.1-0.8,3.1c-0.6,1.1-1.2,2.2-2.1,3.3c-0.8,1.1-1.7,2.1-2.6,3.1c-0.9,1-1.7,2-2.4,2.8l-0.5,0.6
					l0.7-0.1h8.1v3.4h-14.3v-1.9c0.3-0.7,0.8-1.4,1.3-2.2c0.6-0.8,1.2-1.6,1.9-2.4c0.7-0.8,1.4-1.6,2.1-2.5c0.8-0.8,1.4-1.7,2-2.5
					c0.6-0.8,1.1-1.6,1.5-2.4c0.4-0.8,0.6-1.4,0.6-2.1c0-1-0.4-1.8-1-2.3c-0.7-0.6-1.5-0.8-2.5-0.8c-0.5,0-1,0.1-1.7,0.2
					c-0.7,0.1-1.4,0.4-2.2,0.8l-1.1-2.8c1-0.5,2-0.8,2.9-1s1.7-0.3,2.4-0.3c1.2,0,2.3,0.1,3.2,0.4c1,0.3,1.8,0.7,2.5,1.2
					c0.7,0.6,1.2,1.2,1.6,1.9C136.9,18.2,137.1,19.1,137.1,20z"/>
				<path d="M151.1,36.7c-1.9,0-3.7-0.3-5.1-0.9c-1.5-0.6-2.7-1.4-3.8-2.5s-1.8-2.3-2.3-3.7c-0.6-1.4-0.8-2.9-0.8-4.6
					c0-1.7,0.3-3.1,0.8-4.6c0.6-1.4,1.4-2.7,2.4-3.7c1-1,2.3-1.9,3.8-2.5c1.5-0.6,3.1-0.9,5.1-0.9c0.9,0,1.8,0.1,2.7,0.3
					c0.9,0.1,1.9,0.4,2.8,0.8l-1.1,2.9c-0.9-0.3-1.7-0.5-2.3-0.6c-0.6-0.1-1.3-0.1-2.1-0.1c-1.2,0-2.3,0.3-3.2,0.8
					c-0.9,0.5-1.6,1.1-2.3,1.9c-0.6,0.8-1,1.7-1.4,2.7c-0.3,1-0.5,2.1-0.5,3.1s0.1,2.1,0.5,3.1c0.3,1,0.8,1.9,1.4,2.7
					c0.6,0.8,1.4,1.4,2.3,1.9c0.9,0.5,2,0.7,3.2,0.7c1.4,0,2.8-0.4,4.3-1l1.2,2.8c-1,0.5-1.9,0.8-2.8,1.1
					C152.9,36.5,152,36.7,151.1,36.7z"/>
				<path d="M167.3,36.7c-1.4,0-2.7-0.2-3.8-0.6c-1.1-0.4-2.1-1-2.9-1.7c-0.8-0.8-1.4-1.7-1.8-2.9c-0.4-1.2-0.6-2.5-0.6-3.9v-14h4.4
					V28c0,0.8,0.1,1.6,0.4,2.3c0.2,0.7,0.6,1.2,1,1.7c0.4,0.5,0.9,0.8,1.5,1.1c0.6,0.3,1.2,0.4,1.9,0.4c0.7,0,1.3-0.1,1.9-0.4
					c0.6-0.3,1.1-0.6,1.5-1.1c0.4-0.5,0.8-1,1-1.7c0.2-0.7,0.4-1.4,0.4-2.3V13.6h4.4v14c0,1.4-0.2,2.6-0.6,3.8
					c-0.4,1.1-1,2.1-1.8,2.9c-0.8,0.8-1.7,1.4-2.9,1.9C170,36.5,168.7,36.7,167.3,36.7z"/>
			</g>
			<g>
				
					<linearGradient id="SVGID_1_" gradientUnits="userSpaceOnUse" x1="273.2394" y1="12.6537" x2="343.7177" y2="12.6537" gradientTransform="matrix(0.614 0 0 0.614 -167.7602 17.231)">
					<stop  offset="0" style="stop-color:#008B93"/>
					<stop  offset="1" style="stop-color:#00A1AD"/>
				</linearGradient>
				<path fill="url(#SVGID_1_)" d="M21.6,0L0,12.5v25L21.6,50l21.6-12.5v-25L21.6,0z M42,36.7L21.6,48.5L1.3,36.7V13.2L21.6,1.5
					L42,13.2V36.7z M40.7,36L21.6,47L2.6,36V14L21.6,3l19.1,11V36z"/>
				
					<linearGradient id="SVGID_2_" gradientUnits="userSpaceOnUse" x1="-645.9136" y1="183.4342" x2="-645.7891" y2="183.3097" gradientTransform="matrix(391.0975 0 0 -254.1827 252606.3906 46615.6289)">
					<stop  offset="0" style="stop-color:#00A5B1"/>
					<stop  offset="1" style="stop-color:#00A1AE"/>
				</linearGradient>
				<polygon fill="url(#SVGID_2_)" points="31.9,8.9 21.7,3 14.4,7.2 21.6,17 				"/>
				
					<linearGradient id="SVGID_3_" gradientUnits="userSpaceOnUse" x1="-645.9049" y1="183.4428" x2="-645.7805" y2="183.3183" gradientTransform="matrix(391.0975 0 0 -254.1827 252606.3906 46615.6289)">
					<stop  offset="0" style="stop-color:#00A5B1"/>
					<stop  offset="1" style="stop-color:#00A1AE"/>
				</linearGradient>
				<polygon fill="url(#SVGID_3_)" points="21.7,1.5 33,8.1 34.1,7.2 21.7,0 12.8,5.1 13.6,6.1 				"/>
				
					<linearGradient id="SVGID_4_" gradientUnits="userSpaceOnUse" x1="-644.6479" y1="183.443" x2="-644.5234" y2="183.3184" gradientTransform="matrix(187.8741 0 0 -260.9363 121106.2578 47858.5977)">
					<stop  offset="0" style="stop-color:#008591"/>
					<stop  offset="1" style="stop-color:#00A3B0"/>
				</linearGradient>
				<polygon fill="url(#SVGID_4_)" points="14.4,7.2 2.5,14 2.5,17.7 21.6,17 				"/>
				
					<linearGradient id="SVGID_5_" gradientUnits="userSpaceOnUse" x1="-644.6511" y1="183.4395" x2="-644.5267" y2="183.3152" gradientTransform="matrix(187.8741 0 0 -260.9363 121106.2578 47858.5977)">
					<stop  offset="0" style="stop-color:#008591"/>
					<stop  offset="1" style="stop-color:#00A3B0"/>
				</linearGradient>
				<polygon fill="url(#SVGID_5_)" points="1.3,17.8 1.3,13.2 13.6,6.1 12.8,5.1 0,12.5 0,12.5 0.3,17.8 				"/>
				
					<linearGradient id="SVGID_6_" gradientUnits="userSpaceOnUse" x1="-644.4475" y1="184.3122" x2="-644.3228" y2="184.1875" gradientTransform="matrix(170.683 0 0 -287.9509 109999.7344 53084.4727)">
					<stop  offset="0" style="stop-color:#008D99"/>
					<stop  offset="1" style="stop-color:#00A5B2"/>
				</linearGradient>
				<polygon fill="url(#SVGID_6_)" points="2.5,17.7 2.5,31.9 3.3,36.4 11.1,40.9 21.6,17 				"/>
				
					<linearGradient id="SVGID_7_" gradientUnits="userSpaceOnUse" x1="-644.4874" y1="184.272" x2="-644.3629" y2="184.1475" gradientTransform="matrix(170.683 0 0 -287.9509 109999.7344 53084.4727)">
					<stop  offset="0" style="stop-color:#008D99"/>
					<stop  offset="1" style="stop-color:#00A5B2"/>
				</linearGradient>
				<polygon fill="url(#SVGID_7_)" points="3.5,38.1 3.8,39.7 10,43.3 10.6,42.1 				"/>
				
					<linearGradient id="SVGID_8_" gradientUnits="userSpaceOnUse" x1="-644.4698" y1="184.2898" x2="-644.3452" y2="184.1653" gradientTransform="matrix(170.683 0 0 -287.9509 109999.7344 53084.4727)">
					<stop  offset="0" style="stop-color:#008D99"/>
					<stop  offset="1" style="stop-color:#00A5B2"/>
				</linearGradient>
				<polygon fill="url(#SVGID_8_)" points="0.3,17.8 1.3,23.7 1.3,17.8 				"/>
				
					<linearGradient id="SVGID_9_" gradientUnits="userSpaceOnUse" x1="-645.086" y1="184.2984" x2="-644.9615" y2="184.1739" gradientTransform="matrix(205.0652 0 0 -287.9509 132291.5313 53084.4727)">
					<stop  offset="0" style="stop-color:#008994"/>
					<stop  offset="1" style="stop-color:#00A1AD"/>
				</linearGradient>
				<polygon fill="url(#SVGID_9_)" points="21.6,17 11.1,40.9 19.6,45.8 31.4,39.8 				"/>
				
					<linearGradient id="SVGID_10_" gradientUnits="userSpaceOnUse" x1="-645.1191" y1="184.2653" x2="-644.9946" y2="184.1408" gradientTransform="matrix(205.0652 0 0 -287.9509 132291.5313 53084.4727)">
					<stop  offset="0" style="stop-color:#008994"/>
					<stop  offset="1" style="stop-color:#00A1AD"/>
				</linearGradient>
				<polygon fill="url(#SVGID_10_)" points="10.6,42.1 10,43.3 16.8,47.2 18.2,46.5 				"/>
				
					<linearGradient id="SVGID_11_" gradientUnits="userSpaceOnUse" x1="-645.049" y1="185.0311" x2="-644.9244" y2="184.9066" gradientTransform="matrix(205.0652 0 0 -246.2011 132291.5313 45584.4141)">
					<stop  offset="0" style="stop-color:#00AAB8"/>
					<stop  offset="1" style="stop-color:#01A8B5"/>
				</linearGradient>
				<polygon fill="url(#SVGID_11_)" points="19.6,45.8 21.7,47 30.8,41.8 31.4,39.8 				"/>
				
					<linearGradient id="SVGID_12_" gradientUnits="userSpaceOnUse" x1="-645.0589" y1="185.0212" x2="-644.9344" y2="184.8967" gradientTransform="matrix(205.0652 0 0 -246.2011 132291.5313 45584.4141)">
					<stop  offset="0" style="stop-color:#00AAB8"/>
					<stop  offset="1" style="stop-color:#01A8B5"/>
				</linearGradient>
				<polygon fill="url(#SVGID_12_)" points="30.2,43.6 21.7,48.5 18.2,46.5 16.8,47.2 21.7,50 29.7,45.4 				"/>
				
					<linearGradient id="SVGID_13_" gradientUnits="userSpaceOnUse" x1="-641.3654" y1="183.8015" x2="-641.241" y2="183.677" gradientTransform="matrix(92.7091 0 0 -545.2034 59452.2539 100176.7734)">
					<stop  offset="0" style="stop-color:#009AA6"/>
					<stop  offset="1" style="stop-color:#01A1AE"/>
				</linearGradient>
				<polygon fill="url(#SVGID_13_)" points="0,12.5 0,18.9 0.3,17.8 				"/>
				
					<linearGradient id="SVGID_14_" gradientUnits="userSpaceOnUse" x1="-643.2051" y1="184.3419" x2="-643.0805" y2="184.2173" gradientTransform="matrix(136.9148 0 0 -284.2671 88056.4141 52413.2422)">
					<stop  offset="0" style="stop-color:#0196A2"/>
					<stop  offset="1" style="stop-color:#047F88"/>
				</linearGradient>
				<polygon fill="url(#SVGID_14_)" points="1.3,36.7 1.3,23.7 0.3,17.8 0,18.9 0,37.5 3.8,39.7 3.5,38.1 				"/>
				
					<linearGradient id="SVGID_15_" gradientUnits="userSpaceOnUse" x1="-643.2077" y1="184.3395" x2="-643.0832" y2="184.215" gradientTransform="matrix(136.9148 0 0 -284.2671 88056.4141 52413.2422)">
					<stop  offset="0" style="stop-color:#0196A2"/>
					<stop  offset="1" style="stop-color:#047F88"/>
				</linearGradient>
				<polygon fill="url(#SVGID_15_)" points="2.5,36 3.2,36.4 2.5,31.9 				"/>
				
					<linearGradient id="SVGID_16_" gradientUnits="userSpaceOnUse" x1="-646.01" y1="185.0017" x2="-645.8855" y2="184.8772" gradientTransform="matrix(280.5833 0 0 -246.815 181286.1875 45696.8008)">
					<stop  offset="0" style="stop-color:#00939D"/>
					<stop  offset="1" style="stop-color:#03B9C6"/>
				</linearGradient>
				<polygon fill="url(#SVGID_16_)" points="30.2,43.6 29.7,45.4 39.4,39.8 36.8,39.8 				"/>
				
					<linearGradient id="SVGID_17_" gradientUnits="userSpaceOnUse" x1="-646.01" y1="185.0017" x2="-645.8855" y2="184.8772" gradientTransform="matrix(280.5833 0 0 -246.815 181286.1875 45696.8008)">
					<stop  offset="0" style="stop-color:#00939D"/>
					<stop  offset="1" style="stop-color:#03B9C6"/>
				</linearGradient>
				<polygon fill="url(#SVGID_17_)" points="31.4,39.8 30.8,41.8 34.2,39.8 				"/>
				
					<linearGradient id="SVGID_18_" gradientUnits="userSpaceOnUse" x1="-643.538" y1="184.4575" x2="-643.4135" y2="184.333" gradientTransform="matrix(84.1136 0 0 -183.5764 54153.7188 33874.9922)">
					<stop  offset="0" style="stop-color:#14BCC9"/>
					<stop  offset="1" style="stop-color:#08BCCB"/>
				</linearGradient>
				<polygon fill="url(#SVGID_18_)" points="21.6,17 31.4,39.8 32.1,22.3 				"/>
				
					<linearGradient id="SVGID_19_" gradientUnits="userSpaceOnUse" x1="-645.6407" y1="183.6911" x2="-645.5162" y2="183.5666" gradientTransform="matrix(203.2233 0 0 -200.7675 131226.1719 36881.1406)">
					<stop  offset="0" style="stop-color:#008B93"/>
					<stop  offset="1" style="stop-color:#00A1AD"/>
				</linearGradient>
				<polygon fill="url(#SVGID_19_)" points="32.1,22.3 38,12.4 31.9,8.9 21.6,17 				"/>
				
					<linearGradient id="SVGID_20_" gradientUnits="userSpaceOnUse" x1="-645.6111" y1="183.7206" x2="-645.4867" y2="183.5961" gradientTransform="matrix(203.2233 0 0 -200.7675 131226.1719 36881.1406)">
					<stop  offset="0" style="stop-color:#008B93"/>
					<stop  offset="1" style="stop-color:#00A1AD"/>
				</linearGradient>
				<polygon fill="url(#SVGID_20_)" points="38.6,11.3 39.3,10.2 34.1,7.2 33,8.1 				"/>
				
					<linearGradient id="SVGID_21_" gradientUnits="userSpaceOnUse" x1="-645.9868" y1="184.7987" x2="-645.8624" y2="184.6743" gradientTransform="matrix(204.4513 0 0 -140.5986 132099.3125 26008.123)">
					<stop  offset="0" style="stop-color:#05B6C5"/>
					<stop  offset="1" style="stop-color:#15BDCC"/>
				</linearGradient>
				<polygon fill="url(#SVGID_21_)" points="42,36.8 42,36.8 36.8,39.8 39.3,39.8 43.3,37.5 43.3,30.2 42,29.3 				"/>
				
					<linearGradient id="SVGID_22_" gradientUnits="userSpaceOnUse" x1="-645.9931" y1="184.7924" x2="-645.8684" y2="184.6677" gradientTransform="matrix(204.4513 0 0 -140.5986 132099.3125 26008.123)">
					<stop  offset="0" style="stop-color:#05B6C5"/>
					<stop  offset="1" style="stop-color:#15BDCC"/>
				</linearGradient>
				<polygon fill="url(#SVGID_22_)" points="31.4,39.8 34.2,39.8 40.7,36 40.7,36 40.7,28.4 32.1,22.3 				"/>
				
					<linearGradient id="SVGID_23_" gradientUnits="userSpaceOnUse" x1="-645.6871" y1="183.6763" x2="-645.5624" y2="183.5516" gradientTransform="matrix(155.9478 0 0 -200.7675 100719.6328 36881.1406)">
					<stop  offset="0" style="stop-color:#00AEBC"/>
					<stop  offset="1" style="stop-color:#00B5C1"/>
				</linearGradient>
				<polygon fill="url(#SVGID_23_)" points="40.7,18.9 40.7,14 38,12.4 32.1,22.3 				"/>
				
					<linearGradient id="SVGID_24_" gradientUnits="userSpaceOnUse" x1="-645.6603" y1="183.7029" x2="-645.5359" y2="183.5785" gradientTransform="matrix(155.9478 0 0 -200.7675 100719.6328 36881.1406)">
					<stop  offset="0" style="stop-color:#00AEBC"/>
					<stop  offset="1" style="stop-color:#00B5C1"/>
				</linearGradient>
				<polygon fill="url(#SVGID_24_)" points="42,13.2 42,18.4 43.3,17.9 43.3,12.5 39.3,10.2 38.6,11.3 				"/>
				
					<linearGradient id="SVGID_25_" gradientUnits="userSpaceOnUse" x1="-645.9601" y1="184.3209" x2="-645.8356" y2="184.1964" gradientTransform="matrix(198.9256 0 0 -200.7675 128529.3047 37021.1289)">
					<stop  offset="0" style="stop-color:#4AC4DA"/>
					<stop  offset="1" style="stop-color:#36C0D3"/>
				</linearGradient>
				<polygon fill="url(#SVGID_25_)" points="40.7,28.4 40.7,18.9 32.1,22.3 				"/>
				
					<linearGradient id="SVGID_26_" gradientUnits="userSpaceOnUse" x1="-645.9519" y1="184.3291" x2="-645.8276" y2="184.2047" gradientTransform="matrix(198.9256 0 0 -200.7675 128529.3047 37021.1289)">
					<stop  offset="0" style="stop-color:#4AC4DA"/>
					<stop  offset="1" style="stop-color:#36C0D3"/>
				</linearGradient>
				<polygon fill="url(#SVGID_26_)" points="42,29.3 43.3,30.2 43.3,17.9 42,18.4 				"/>
				<polygon opacity="0.2" fill="#FFFFFF" enable-background="new    " points="13.7,6.1 12.9,5 12.7,5.2 13.5,6.2 				"/>
				<polygon opacity="0.2" fill="#FFFFFF" enable-background="new    " points="0.1,12.4 0,12.5 0,14.4 0.2,17.7 0.2,17.7 0.2,17.8 
					0,18.5 0,19.3 0.3,18.3 1.3,24.6 1.3,22.9 0.5,17.9 1.3,17.9 1.3,17.6 0.5,17.7 				"/>
				<polygon opacity="0.2" fill="#FFFFFF" enable-background="new    " points="2.5,32.8 3.1,36.3 3.4,36.5 2.5,31.1 				"/>
				<polygon opacity="0.2" fill="#FFFFFF" enable-background="new    " points="3.4,38 3.7,39.6 3.9,39.8 3.7,38.1 				"/>
				<polygon opacity="0.2" fill="#FFFFFF" enable-background="new    " points="39.4,10.2 39.2,10.1 38.5,11.2 38.7,11.3 				"/>
				<polygon opacity="0.2" fill="#FFFFFF" enable-background="new    " points="34.3,7.3 34,7.1 32.9,8 33.2,8.1 				"/>
				<path opacity="0.2" fill="#FFFFFF" enable-background="new    " d="M32.4,22l3.1-5.2l2.6-4.4l-0.2-0.1L32,22.1L32,22.1v0
					l-5.3-2.7l-4.9-2.5L32.1,9l-0.2-0.1l-10.2,7.9l-0.1-0.1l0,0.1l-7.1-9.6l-0.2,0.1l7.1,9.6L2.5,17.6v0.3l18.9-0.7l-5.1,11.6
					L11,40.9l0.2,0.1l10.4-23.7l9.6,22.5l-11.8,6l0.3,0.1L31.1,40l-0.6,1.8l0.3-0.2l0.5-1.5l0.1,0.2l0-0.4h2.4l0.4-0.3h-2.8l0-0.1
					l-0.1,0l0.7-17.1l8.5,6v-0.3l-4.4-3.1l-4-2.8l8.4-3.3v-0.3l-2.9,1.1L32.4,22z M31.3,39.3l-9.4-22l4.8,2.5l5.2,2.7l-0.1,0.2
					l0.2-0.1L31.3,39.3z"/>
				<polygon opacity="0.2" fill="#FFFFFF" enable-background="new    " points="36.5,39.9 39.1,39.9 39.6,39.7 37,39.7 				"/>
				<polygon opacity="0.2" fill="#FFFFFF" enable-background="new    " points="42,29.5 43.3,30.4 43.3,30.1 42,29.1 				"/>
				<polygon opacity="0.2" fill="#FFFFFF" enable-background="new    " points="42,18.3 42,18.6 43.3,18.1 43.3,17.8 				"/>
				<polygon opacity="0.2" fill="#FFFFFF" enable-background="new    " points="9.9,43.2 10.1,43.4 10.7,42.2 10.4,42 				"/>
				<polygon opacity="0.2" fill="#FFFFFF" enable-background="new    " points="29.5,45.5 29.8,45.3 30.4,43.5 30.1,43.7 				"/>
				<polygon opacity="0.2" fill="#FFFFFF" enable-background="new    " points="16.7,47.2 17,47.3 18.3,46.6 18.1,46.4 				"/>
				<path opacity="0.2" fill="#FFFFFF" enable-background="new    " d="M0,27.8v-0.3l1.3-1.1v0.3L0,27.8z M43.3,14.6v-0.3L42,13.6
					v0.3l0,0L43.3,14.6z M24.8,4.8l-0.5-0.3L19.9,4l-0.4,0.2L24.8,4.8z M0,36.6v0.5l0.5,0.7L1,38.1L0,36.6z M26.8,3l-0.1,1.4
					l0.4,0.2l0.7-1.1l-0.2-0.1l-0.6,1l0.1-1.3L26.8,3z M43.3,24.7L42,24.8v0.3l1.3-0.2V24.7z M5,38.9l5.4,4.6l1.2,0.7l-5.4-4.6
					L5,38.9z M17.7,3.8l-2.2-0.2l-0.4,0.2L17.3,4L17.7,3.8z M1.3,35.7v-0.3L0,34.3v0.3l1.1,1L1.3,35.7z M2.5,25.3v0.3L26.2,5.6
					l-0.2-0.1L10.6,18.5L2.5,25.3z M15.1,28.7l25.6-3.4V25L39,25.3L2.5,30.1v0.3L15.1,28.7z M0,30.6l1.3-0.2v-0.3L0,30.4V30.6z"/>
				<polygon opacity="0.3" fill="#FFFFFF" enable-background="new    " points="0,31 0,32 0.7,34.5 0.3,34.2 0.6,34.6 0,34.4 
					0,34.7 0.4,34.8 0,34.9 0,35.1 0.5,35 0.5,35.1 0.9,35 0.9,35.1 0.9,35.1 1.3,35.6 1.3,35 1.2,35 1.3,35 1.3,34.4 1,34.6 				
					"/>
				<polygon opacity="0.3" fill="#FFFFFF" enable-background="new    " points="18.4,1.9 14.5,4.1 4.2,10.9 0,13.6 0,13.9 4,11.3 
									"/>
				<polygon opacity="0.3" fill="#FFFFFF" enable-background="new    " points="21.7,0 21.5,0.1 21.8,0.1 				"/>
				<polygon opacity="0.3" fill="#FFFFFF" enable-background="new    " points="40.4,10.8 39.7,10.4 35.8,9.6 36.5,10 				"/>
				<polygon opacity="0.3" fill="#FFFFFF" enable-background="new    " points="0,17.1 1.3,17.2 1.3,17 0,16.8 				"/>
				<polygon opacity="0.3" fill="#FFFFFF" enable-background="new    " points="31.6,5.7 31.3,5.6 29.9,6.3 30.2,6.4 				"/>
				<polygon opacity="0.3" fill="#FFFFFF" enable-background="new    " points="21.2,0.3 22.2,1.8 22.7,2.1 21.4,0.2 20.9,0.4 
					20.8,2 21,1.8 				"/>
				<polygon opacity="0.3" fill="#FFFFFF" enable-background="new    " points="42,26.5 43.3,25.3 43.3,24.9 42,26.2 				"/>
				<polygon opacity="0.3" fill="#FFFFFF" enable-background="new    " points="42,17.1 42,18 43.3,13.7 43.3,12.9 				"/>
				<polygon opacity="0.3" fill="#FFFFFF" enable-background="new    " points="42,32.9 43.3,33.9 43.3,33.6 42,32.6 				"/>
				<polygon opacity="0.3" fill="#FFFFFF" enable-background="new    " points="6.4,39.7 11.8,44.3 13,45 7.6,40.4 				"/>
				<polygon opacity="0.3" fill="#FFFFFF" enable-background="new    " points="2.6,37.5 4.3,40 4.8,40.3 3.1,37.8 				"/>
				<path opacity="0.3" fill="#FFFFFF" enable-background="new    " d="M27,8.1l5.6,1.1l-0.7-0.4l-4.7-0.9l1.7-0.8L28.5,7l-1.8,0.9
					l0-0.1l0,0l-2.2-3.1L24,4.3l2.5,3.6L26.4,8l0.2,0l-3.3,5.1l-3.5,5.4l1.2-15.2l-0.3,0.1l-1.2,15.4L2.5,17.1v0.3l16.7,1.8
					l-9.5,8.1l-7.2,6.1v0.3l16.9-14.3v0.2l0.2-0.3l9,5.2l9.3,5.4l-7.8,1L2.5,34.5v0.3l18-2.4l17.5-2.3l-3.2,9.3l0.3-0.2l3-8.9v0
					l0-0.1l2.4,1.8v-0.3L38.6,30h0.1l-0.2-0.1l2.2-2.1v-0.3l-2.1,2.1l2.2-7.2v-0.9l-2.5,8.2L27,8.1z M19.8,19L19.8,19L19.8,19
					l3.5-5.6l3.4-5.3L38,29.6L19.8,19z"/>
				<polygon opacity="0.3" fill="#FFFFFF" enable-background="new    " points="33.7,43.1 34,42.9 34.6,41 34.3,41.2 				"/>
				<path opacity="0.77" fill="#FFFFFF" enable-background="new    " d="M0,34.3c0.1-0.1,0.2-0.1,0.3-0.1c0.4,0,0.6,0.3,0.6,0.6
					s-0.3,0.6-0.6,0.6c-0.1,0-0.3,0-0.3-0.1C0,35.4,0,34.3,0,34.3z M20.7,0.5c0.1,0.1,0.2,0.1,0.4,0.1c0.4,0,0.6-0.3,0.6-0.6l0,0
					l-0.1,0L20.7,0.5z M18.9,19c0,0.3,0.3,0.6,0.6,0.6c0.4,0,0.6-0.3,0.6-0.6s-0.3-0.6-0.6-0.6C19.2,18.3,18.9,18.6,18.9,19z
					 M31.9,39.9c0-0.5-0.4-0.9-0.9-0.9c-0.5,0-0.9,0.4-0.9,0.9c0,0.5,0.4,0.9,0.9,0.9C31.5,40.8,31.9,40.4,31.9,39.9z M38.9,29.9
					c0-0.3-0.3-0.6-0.6-0.6c-0.4,0-0.6,0.3-0.6,0.6s0.3,0.6,0.6,0.6C38.6,30.6,38.9,30.3,38.9,29.9z"/>
				<path fill="#FFFFFF" d="M12.9,33.5l0.8,3.3l0.1,0.3l0.1-0.3l0.9-3.4h0.9l-1.3,4.6h-0.9l-0.9-3.4l-0.1-0.3l-0.1,0.3l-0.9,3.4
					h-0.9l-1.3-4.6h0.9l0.9,3.4l0.1,0.3l0.1-0.3l0.8-3.3H12.9L12.9,33.5z"/>
				<path fill="#FFFFFF" d="M16.6,37.1l-0.3,1h-0.9l1.7-4.6h0.9l1.7,4.6h-0.9l-1.1-3.4l-0.1-0.2l-0.1,0.3l-0.5,1.7l-0.1,0.1l0.1,0
					h0.5c0.1,0,0.2,0,0.2,0.1c0.1,0,0.1,0.1,0.2,0.1c0.1,0.1,0.1,0.1,0.1,0.2c0,0.1,0.1,0.1,0.1,0.2L16.6,37.1L16.6,37.1z"/>
				<path fill="#FFFFFF" d="M21.5,35.9v2.1h-0.9v-2L19,33.5h1L21.5,35.9z M22,33.5h1l-1.3,2.2c0-0.1-0.1-0.1-0.1-0.2
					c0-0.1-0.1-0.2-0.1-0.3c0-0.1,0-0.2-0.1-0.3c0-0.1,0-0.2,0.1-0.3L22,33.5z"/>
				<path fill="#FFFFFF" d="M26.1,34.8c0,0.2-0.1,0.4-0.2,0.6s-0.3,0.5-0.4,0.7c-0.2,0.2-0.3,0.4-0.5,0.6c-0.2,0.2-0.3,0.4-0.5,0.6
					l-0.1,0.1l0.1,0h1.7v0.7h-2.9v-0.4c0.1-0.1,0.1-0.3,0.3-0.5c0.1-0.1,0.3-0.3,0.4-0.5c0.1-0.2,0.3-0.3,0.4-0.5
					c0.1-0.2,0.3-0.3,0.4-0.5c0.1-0.2,0.2-0.3,0.3-0.5c0.1-0.1,0.1-0.3,0.1-0.4c0-0.2-0.1-0.4-0.2-0.5c-0.1-0.1-0.3-0.2-0.5-0.2
					c-0.1,0-0.2,0-0.3,0c-0.1,0-0.3,0.1-0.5,0.1l-0.2-0.6c0.2-0.1,0.4-0.2,0.6-0.2c0.2,0,0.3-0.1,0.5-0.1c0.3,0,0.5,0,0.6,0.1
					c0.2,0.1,0.4,0.1,0.5,0.2c0.1,0.1,0.3,0.2,0.3,0.4C26,34.4,26.1,34.6,26.1,34.8z"/>
				<path fill="#FFFFFF" d="M28.9,38.1c-0.4,0-0.7-0.1-1.1-0.2c-0.3-0.1-0.6-0.3-0.8-0.5c-0.2-0.2-0.4-0.5-0.5-0.7
					c-0.1-0.3-0.2-0.6-0.2-0.9c0-0.3,0.1-0.6,0.2-0.9s0.3-0.5,0.5-0.7c0.2-0.2,0.5-0.4,0.8-0.5c0.3-0.1,0.6-0.2,1-0.2
					c0.2,0,0.4,0,0.5,0.1c0.2,0,0.4,0.1,0.6,0.2l-0.2,0.6c-0.2-0.1-0.3-0.1-0.5-0.1c-0.1,0-0.3,0-0.4,0c-0.3,0-0.5,0.1-0.6,0.1
					c-0.2,0.1-0.3,0.2-0.5,0.4c-0.1,0.2-0.2,0.3-0.3,0.6c-0.1,0.2-0.1,0.4-0.1,0.6s0,0.4,0.1,0.6c0.1,0.2,0.1,0.4,0.3,0.6
					c0.1,0.2,0.3,0.3,0.5,0.4c0.2,0.1,0.4,0.1,0.6,0.1c0.3,0,0.6-0.1,0.9-0.2l0.2,0.6c-0.2,0.1-0.4,0.2-0.6,0.2
					C29.3,38.1,29.1,38.1,28.9,38.1z"/>
				<path fill="#FFFFFF" d="M32.2,38.1c-0.3,0-0.5,0-0.8-0.1c-0.2-0.1-0.4-0.2-0.6-0.3c-0.1-0.1-0.3-0.3-0.4-0.6
					c-0.1-0.2-0.1-0.5-0.1-0.8v-2.8h0.9v2.9c0,0.2,0,0.3,0.1,0.5c0,0.1,0.1,0.3,0.2,0.3s0.2,0.2,0.3,0.2c0.1,0.1,0.2,0.1,0.4,0.1
					c0.1,0,0.3,0,0.4-0.1c0.1-0.1,0.2-0.1,0.3-0.2c0.1-0.1,0.1-0.2,0.2-0.3c0-0.1,0.1-0.3,0.1-0.5v-2.9h0.9v2.8c0,0.3,0,0.5-0.1,0.8
					c-0.1,0.2-0.2,0.4-0.4,0.6c-0.1,0.2-0.3,0.3-0.6,0.4C32.7,38.1,32.4,38.1,32.2,38.1z"/>
				<path fill="#FFFFFF" d="M21.5,30.4c4.9,0,10.7-2.2,11.2-7.9c0.1-1.3-0.8-6.4-4.5-10.7l-3.3,4.4h-6.8l-3.3-4.4
					c-3.8,4.3-4.7,9.4-4.5,10.7C10.9,28.2,16.6,30.4,21.5,30.4"/>
				<path d="M22,26.7l0.9-1.3c0.2-0.2,0.1-0.6-0.2-0.7c-0.3-0.2-0.7-0.3-1.1-0.3c-0.4,0-0.8,0.1-1.1,0.3c-0.3,0.1-0.3,0.5-0.2,0.7
					l0.9,1.3C21.4,27,21.8,27,22,26.7z"/>
				<path d="M23.6,28.3c-0.9,0-1.7-0.5-2.1-1.3c-0.4,0.8-1.2,1.3-2.1,1.3c-0.6,0-1.1-0.2-1.5-0.6c-0.1-0.1-0.1-0.2,0-0.3
					c0.1-0.1,0.2-0.1,0.3,0c0.3,0.3,0.8,0.5,1.2,0.5c0.9,0,1.7-0.7,1.9-1.6c0-0.1,0.1-0.2,0.2-0.2c0.1,0,0.2,0.1,0.2,0.2
					c0.2,0.9,1,1.6,1.9,1.6c0.5,0,0.9-0.1,1.2-0.5c0.1-0.1,0.2-0.1,0.3,0c0.1,0.1,0.1,0.2,0,0.3C24.7,28.1,24.2,28.3,23.6,28.3z"/>
				<path d="M32.6,20.5c-0.3,0.1-0.5,0.1-0.9,0.2c-2.7,0.6-6.4,1-10.2,1s-7.5-0.3-10.2-1c-0.3-0.1-0.6-0.1-0.9-0.2
					c0,0.2-0.1,0.4-0.1,0.6c0.6,0.1,1.2,0.3,1.8,0.4c0.1,1.7,1.7,3,3.7,3c1.7,0,3.2-0.9,3.6-2.2c0.7,0,1.4,0,2.1,0
					c0.6,0,1.1,0,1.7,0c0.5,1.3,1.9,2.3,3.6,2.2c1.9,0,3.5-1.3,3.7-2.9c0.8-0.1,1.5-0.3,2.1-0.5C32.7,20.9,32.7,20.7,32.6,20.5z"/>
			</g>
		</g>
	</g>
</g>
</svg>
