<svg version="1.1" xmlns="http://www.w3.org/2000/svg" xmlns:xlink="http://www.w3.org/1999/xlink" width="32" height="32" viewBox="0 0 32 32">
<path fill="rgb(35,31,32)" d="M13.41 20.037v-8.103h5.18v8.103h-5.18zM13.625 19.822h4.75v-7.673h-4.75v7.673z"></path>
<path fill="rgb(35,31,32)" d="M12.876 20.53v-9.059c0-0.519 0.421-0.94 0.941-0.94v0h4.367c0.52 0 0.941 0.421 0.941 0.94v0 9.059c0 0.52-0.421 0.94-0.941 0.94v0l-4.367 0c-0.52-0-0.94-0.421-0.941-0.941v0zM13.163 11.47v9.059c0.001 0.361 0.293 0.654 0.654 0.654v0h4.367c0.361-0.001 0.654-0.293 0.654-0.654v0-9.059c-0.001-0.361-0.293-0.654-0.654-0.654v0h-4.367c-0.362 0.001-0.654 0.293-0.654 0.654v0z"></path>
<path fill="rgb(35,31,32)" d="M14.932 11.546c-0.104 0-0.188-0.084-0.188-0.188v0c0-0.104 0.084-0.188 0.188-0.188v0h2.137c0.104 0 0.188 0.084 0.188 0.188v0c0 0.104-0.084 0.188-0.188 0.188v0h-2.137zM14.886 11.358c0 0.025 0.020 0.044 0.045 0.045v0h2.137c0.025-0 0.044-0.020 0.045-0.045v0c-0-0.025-0.020-0.044-0.045-0.045v0h-2.137c-0.024 0.001-0.044 0.020-0.045 0.045v0z"></path>
<path fill="rgb(35,31,32)" d="M16 20.188c-0.234 0-0.423 0.189-0.423 0.423s0.189 0.423 0.423 0.423 0.423-0.189 0.423-0.423c0-0.233-0.189-0.423-0.423-0.423zM16 20.89c-0.155 0-0.28-0.125-0.28-0.28s0.125-0.28 0.28-0.28c0.154 0 0.28 0.125 0.28 0.28s-0.125 0.28-0.28 0.28z"></path>
<path fill="rgb(35,31,32)" d="M14.977 20.257c-0.195 0-0.353 0.158-0.353 0.353s0.158 0.353 0.353 0.353c0.195 0 0.353-0.158 0.353-0.353s-0.158-0.353-0.353-0.353zM14.977 20.821c-0.116 0-0.21-0.094-0.21-0.21s0.094-0.21 0.21-0.21c0.116 0 0.21 0.094 0.21 0.21s-0.094 0.21-0.21 0.21z"></path>
<path fill="rgb(35,31,32)" d="M17.023 20.257c-0.195 0-0.353 0.158-0.353 0.353s0.158 0.353 0.353 0.353 0.353-0.158 0.353-0.353c0-0.195-0.158-0.353-0.353-0.353zM17.023 20.821c-0.116 0-0.21-0.094-0.21-0.21s0.094-0.21 0.21-0.21c0.116 0 0.21 0.094 0.21 0.21s-0.094 0.21-0.21 0.21z"></path>
</svg>
