<?xml version="1.0" encoding="iso-8859-1"?>
<!-- Generator: Adobe Illustrator 19.1.0, SVG Export Plug-In . SVG Version: 6.00 Build 0)  -->
<svg version="1.1" id="Layer_1" xmlns="http://www.w3.org/2000/svg" xmlns:xlink="http://www.w3.org/1999/xlink" x="0px" y="0px"
	 viewBox="0 0 383.769 671.237" style="enable-background:new 0 0 383.769 671.237;" xml:space="preserve">
<path style="fill:none;stroke:#000000;stroke-miterlimit:10;" d="M0.5,613.104V58.123C0.517,26.306,26.288,0.5,58.141,0.5l0,0
	h267.503c31.835,0,57.625,25.806,57.625,57.624l0,0v554.981c0,31.827-25.789,57.615-57.625,57.615l0,0l-267.503,0.018
	C26.288,670.719,0.517,644.931,0.5,613.104L0.5,613.104z"/>
<path style="fill:none;stroke:#000000;stroke-miterlimit:10;" d="M126.419,62.757c-6.346,0-11.511-5.139-11.511-11.52l0,0
	c0-6.38,5.165-11.494,11.511-11.494l0,0h130.938c6.346,0,11.494,5.113,11.494,11.494l0,0c0,6.381-5.148,11.52-11.494,11.52l0,0
	H126.419L126.419,62.757z"/>
<path style="fill:none;stroke:#000000;stroke-miterlimit:10;" d="M191.889,592.154c-14.312,0-25.908,11.597-25.908,25.901
	c0,14.303,11.596,25.9,25.908,25.9c14.303,0,25.9-11.597,25.9-25.9C217.788,603.751,206.191,592.154,191.889,592.154z"/>
</svg>
