<?xml version="1.0" encoding="utf-8"?>
<!-- Generated by IcoMoon.io -->
<!DOCTYPE svg PUBLIC "-//W3C//DTD SVG 1.1//EN" "http://www.w3.org/Graphics/SVG/1.1/DTD/svg11.dtd">
<svg version="1.1" xmlns="http://www.w3.org/2000/svg" xmlns:xlink="http://www.w3.org/1999/xlink" width="60" height="60" viewBox="0 0 60 60">
<path d="M30 0c-16.568 0-30 13.432-30 30s13.432 30 30 30c16.569 0 30-13.432 30-30s-13.431-30-30-30zM37.931 48.241c-2.552-0.193-19.194-4.19-26.203-23.985-1.419-4.151 0.334-10.844 5.083-12.339 4.818-1.557 7.283 5.174 7.984 9.431l-4.203 4.198c0 0-0.119 2.624 5.632 8.374 5.744 5.748 8.372 5.63 8.372 5.63l4.883-4.879c3.086 0.651 9.27 4.581 9.27 4.581-0.767 5.803-4.701 9.636-10.818 8.989z" fill="#444444"></path>
</svg>
