<svg style="position: absolute; width: 0; height: 0;" width="0" height="0" version="1.1" xmlns="http://www.w3.org/2000/svg" xmlns:xlink="http://www.w3.org/1999/xlink">
<defs>
<symbol id="mobile-icon" viewBox="0 0 21 41">
	<path d="M17.5,40.5h-14c-1.7,0-3-1.3-3-3v-34c0-1.7,1.3-3,3-3h14c1.7,0,3,1.3,3,3v34C20.5,39.2,19.2,40.5,17.5,40.5z"/>
	<rect x="2.5" y="5.5" class="st0" width="16" height="30"/>
	<circle cx="10.5" cy="2.7" r="0.5"/>
	<circle cx="10.5" cy="38.1" r="1"/>
</symbol>
<symbol id="tablet-icon" viewBox="0 0 48 66">
	<path d="M44.5,65.5h-41c-1.7,0-3-1.3-3-3v-59c0-1.7,1.3-3,3-3h41c1.7,0,3,1.3,3,3v59C47.5,64.2,46.2,65.5,44.5,65.5z"/>
	<rect x="4.2" y="7.5" width="39.5" height="50.9"/>
	<circle cx="24" cy="3.6" r="1"/>
	<circle cx="24" cy="62" r="2"/>
</symbol>
<symbol id="cross-icon" viewBox="0 0 1024 1024">
	<path d="M1014.662 822.66c-0.004-0.004-0.008-0.008-0.012-0.010l-310.644-310.65 310.644-310.65c0.004-0.004 0.008-0.006 0.012-0.010 3.344-3.346 5.762-7.254 7.312-11.416 4.246-11.376 1.824-24.682-7.324-33.83l-146.746-146.746c-9.148-9.146-22.45-11.566-33.828-7.32-4.16 1.55-8.070 3.968-11.418 7.31 0 0.004-0.004 0.006-0.008 0.010l-310.648 310.652-310.648-310.65c-0.004-0.004-0.006-0.006-0.010-0.010-3.346-3.342-7.254-5.76-11.414-7.31-11.38-4.248-24.682-1.826-33.83 7.32l-146.748 146.748c-9.148 9.148-11.568 22.452-7.322 33.828 1.552 4.16 3.97 8.072 7.312 11.416 0.004 0.002 0.006 0.006 0.010 0.010l310.65 310.648-310.65 310.652c-0.002 0.004-0.006 0.006-0.008 0.010-3.342 3.346-5.76 7.254-7.314 11.414-4.248 11.376-1.826 24.682 7.322 33.83l146.748 146.746c9.15 9.148 22.452 11.568 33.83 7.322 4.16-1.552 8.070-3.97 11.416-7.312 0.002-0.004 0.006-0.006 0.010-0.010l310.648-310.65 310.648 310.65c0.004 0.002 0.008 0.006 0.012 0.008 3.348 3.344 7.254 5.762 11.414 7.314 11.378 4.246 24.684 1.826 33.828-7.322l146.746-146.748c9.148-9.148 11.57-22.454 7.324-33.83-1.552-4.16-3.97-8.068-7.314-11.414z"></path>
</symbol>
<symbol id="desktop-icon" viewBox="0 0 103 75.3">
	<path d="M99.5,65.5h-96c-1.7,0-3-1.3-3-3v-59c0-1.7,1.3-3,3-3h96c1.7,0,3,1.3,3,3v59C102.5,64.2,101.2,65.5,99.5,65.5z"/>
	<rect x="4.5" y="4" width="94" height="58"/>
	<path d="M62.4,65.5c0.1,1.6,0.5,2.6,1.6,3.6h0c0.9,0.9,1.8,1.1,2.3,1.8c0.5,0.6,0.9,1.6,1,4H35.7c0.1-2.4,0.5-3.4,1-4 c0.5-0.6,1.4-0.9,2.3-1.8c1.1-1,1.6-2,1.6-3.6"/>
</symbol>
</defs>
</svg>
