<?xml version="1.0" encoding="iso-8859-1"?>
<!-- Generator: Adobe Illustrator 19.1.0, SVG Export Plug-In . SVG Version: 6.00 Build 0)  -->
<svg version="1.1" id="Layer_1" xmlns="http://www.w3.org/2000/svg" xmlns:xlink="http://www.w3.org/1999/xlink" x="0px" y="0px"
	 viewBox="0 0 443.912 601" style="enable-background:new 0 0 443.912 601;" xml:space="preserve">
<path style="fill:none;stroke:#7F8C8D;stroke-miterlimit:10;" d="M33.929,600.5C15.462,600.491,0.5,585.515,0.5,567.043l0,0V33.957
	C0.5,15.481,15.462,0.515,33.929,0.5l0,0H409.97c18.467,0.015,33.443,14.981,33.443,33.457l0,0v533.086
	c0,18.472-14.976,33.448-33.443,33.457l0,0H33.929L33.929,600.5z"/>
<circle style="fill:none;stroke:#7F8C8D;stroke-miterlimit:10;" cx="221.956" cy="36.897" r="11.186"/>
<path style="fill:none;stroke:#7F8C8D;stroke-miterlimit:10;" d="M221.952,552.343c-7.937,0-14.368,6.431-14.368,14.363
	c0,7.937,6.431,14.368,14.368,14.368c7.932,0,14.363-6.431,14.363-14.368C236.315,558.774,229.883,552.343,221.952,552.343z"/>
<path style="fill:none;stroke:#7F8C8D;stroke-miterlimit:10;" d="M187.179,554.706c-6.626,0-12.003,5.377-12.003,12.003
	c0,6.626,5.377,12.003,12.003,12.003c6.626,0,12.002-5.377,12.002-12.003C199.181,560.083,193.805,554.706,187.179,554.706z"/>
<path style="fill:none;stroke:#7F8C8D;stroke-miterlimit:10;" d="M256.719,554.706c-6.626,0-12.003,5.377-12.003,12.003
	c0,6.626,5.377,12.003,12.003,12.003c6.626,0,12.003-5.377,12.003-12.003C268.722,560.083,263.345,554.706,256.719,554.706z"/>
</svg>
