<svg version="1.1" xmlns="http://www.w3.org/2000/svg" xmlns:xlink="http://www.w3.org/1999/xlink" width="32" height="32" viewBox="0 0 32 32">
<path fill="rgb(35,31,32)" d="M10.465 24.83c-0.544-0-0.984-0.441-0.984-0.985v0-15.691c0-0.544 0.44-0.984 0.984-0.985v0h11.069c0.544 0 0.984 0.441 0.984 0.985v0 15.692c0 0.544-0.441 0.985-0.984 0.985v0l-11.069-0zM9.767 8.154v15.692c0.001 0.386 0.313 0.698 0.698 0.699v0h11.069c0.385-0.001 0.697-0.313 0.698-0.699v0-15.692c-0.001-0.386-0.313-0.698-0.698-0.698v0h-11.069c-0.385 0.001-0.697 0.313-0.698 0.698v0z"></path>
<path fill="rgb(35,31,32)" d="M10.468 23.127v-14.255h11.063v14.255h-11.063zM10.683 22.913h10.634v-13.826h-10.634v13.826z"></path>
<path fill="rgb(35,31,32)" d="M16 7.912c-0.182 0-0.329 0.148-0.329 0.329s0.147 0.329 0.329 0.329c0.182 0 0.329-0.148 0.329-0.329s-0.148-0.329-0.329-0.329zM16 8.427c-0.103 0-0.186-0.083-0.186-0.186s0.083-0.186 0.186-0.186 0.186 0.083 0.186 0.186c0 0.103-0.083 0.186-0.186 0.186z"></path>
<path fill="rgb(35,31,32)" d="M16 23.413c-0.234 0-0.423 0.189-0.423 0.423s0.189 0.423 0.423 0.423 0.423-0.189 0.423-0.423c0-0.234-0.189-0.423-0.423-0.423zM16 24.116c-0.155 0-0.28-0.125-0.28-0.28s0.125-0.28 0.28-0.28c0.154 0 0.28 0.125 0.28 0.28s-0.125 0.28-0.28 0.28z"></path>
<path fill="rgb(35,31,32)" d="M14.976 23.483c-0.195 0-0.353 0.158-0.353 0.353s0.158 0.353 0.353 0.353c0.195 0 0.353-0.158 0.353-0.353s-0.158-0.353-0.353-0.353zM14.976 24.046c-0.116 0-0.21-0.094-0.21-0.21s0.094-0.21 0.21-0.21c0.116 0 0.21 0.094 0.21 0.21s-0.094 0.21-0.21 0.21z"></path>
<path fill="rgb(35,31,32)" d="M17.023 23.483c-0.195 0-0.353 0.158-0.353 0.353s0.158 0.353 0.353 0.353c0.195 0 0.353-0.158 0.353-0.353s-0.158-0.353-0.353-0.353zM17.023 24.046c-0.116 0-0.21-0.094-0.21-0.21s0.094-0.21 0.21-0.21c0.116 0 0.21 0.094 0.21 0.21s-0.094 0.21-0.21 0.21z"></path>
</svg>
