<?xml version="1.0" encoding="utf-8"?>
<!-- Generator: Adobe Illustrator 18.0.0, SVG Export Plug-In . SVG Version: 6.00 Build 0)  -->
<!DOCTYPE svg PUBLIC "-//W3C//DTD SVG 1.1//EN" "http://www.w3.org/Graphics/SVG/1.1/DTD/svg11.dtd">
<svg version="1.1"  xmlns="http://www.w3.org/2000/svg" xmlns:xlink="http://www.w3.org/1999/xlink" x="0px" y="0px"
	 width="239px" height="276.1px" viewBox="1 0.1 239 276.1" enable-background="new 1 0.1 239 276.1" xml:space="preserve">
<g id="Guides" display="none">
</g>
<g>
	<linearGradient id="SVGID_1_" gradientUnits="userSpaceOnUse" x1="1" y1="138.1167" x2="240" y2="138.1167">
		<stop  offset="0" style="stop-color:#008B93"/>
		<stop  offset="1" style="stop-color:#00A1AD"/>
	</linearGradient>
	<path fill="url(#SVGID_1_)" d="M120.5,0.1L1,69.1v138l119.5,69l119.5-69v-138L120.5,0.1z M232.9,203l-112.4,64.9L8.1,203V73.2
		L120.5,8.3l112.4,64.9V203z M225.8,198.9l-105.3,60.8L15.2,198.9V77.3l105.3-60.8l105.3,60.8V198.9z"/>
	<g>
		<g id="background">
			<g>
				
					<linearGradient id="SVGID_2_" gradientUnits="userSpaceOnUse" x1="-255.9413" y1="438.0754" x2="-255.5192" y2="437.6533" gradientTransform="matrix(637 0 0 -414 162987.2188 181307.1406)">
					<stop  offset="0" style="stop-color:#00A5B1"/>
					<stop  offset="1" style="stop-color:#00A1AE"/>
				</linearGradient>
				<polygon fill="url(#SVGID_2_)" points="177.4,49.3 120.6,16.5 80.4,39.7 120.3,93.7 				"/>
				
					<linearGradient id="SVGID_3_" gradientUnits="userSpaceOnUse" x1="-255.9121" y1="438.1046" x2="-255.4901" y2="437.6825" gradientTransform="matrix(637 0 0 -414 162987.2188 181307.1406)">
					<stop  offset="0" style="stop-color:#00A5B1"/>
					<stop  offset="1" style="stop-color:#00A1AE"/>
				</linearGradient>
				<polygon fill="url(#SVGID_3_)" points="120.6,8.3 183.5,44.6 189.5,39.9 120.6,0.1 71.9,28.2 76.1,33.9 				"/>
				
					<linearGradient id="SVGID_4_" gradientUnits="userSpaceOnUse" x1="-255.8302" y1="438.0508" x2="-255.4079" y2="437.6284" gradientTransform="matrix(306 0 0 -425 78249.6016 186125.625)">
					<stop  offset="0" style="stop-color:#008591"/>
					<stop  offset="1" style="stop-color:#00A3B0"/>
				</linearGradient>
				<polygon fill="url(#SVGID_4_)" points="80.3,39.7 15,77.3 15,97.8 120.1,93.7 				"/>
				
					<linearGradient id="SVGID_5_" gradientUnits="userSpaceOnUse" x1="-255.8407" y1="438.0391" x2="-255.419" y2="437.6174" gradientTransform="matrix(306 0 0 -425 78249.6016 186125.625)">
					<stop  offset="0" style="stop-color:#008591"/>
					<stop  offset="1" style="stop-color:#00A3B0"/>
				</linearGradient>
				<polygon fill="url(#SVGID_5_)" points="8,98.1 8,73.2 76.1,33.9 71.8,28.2 1,69.1 1,69.1 2.9,98.3 				"/>
				
					<linearGradient id="SVGID_6_" gradientUnits="userSpaceOnUse" x1="-255.7177" y1="438.6974" x2="-255.295" y2="438.2748" gradientTransform="matrix(278 0 0 -469 71109.7266 205813.2656)">
					<stop  offset="0" style="stop-color:#008D99"/>
					<stop  offset="1" style="stop-color:#00A5B2"/>
				</linearGradient>
				<polygon fill="url(#SVGID_6_)" points="15,97.8 15,176.4 19,201.2 62.1,226 120.1,93.7 				"/>
				
					<linearGradient id="SVGID_7_" gradientUnits="userSpaceOnUse" x1="-255.8531" y1="438.5612" x2="-255.4309" y2="438.1391" gradientTransform="matrix(278 0 0 -469 71109.7266 205813.2656)">
					<stop  offset="0" style="stop-color:#008D99"/>
					<stop  offset="1" style="stop-color:#00A5B2"/>
				</linearGradient>
				<polygon fill="url(#SVGID_7_)" points="20.5,210.2 21.9,219.2 56.4,239.1 59.3,232.6 				"/>
				
					<linearGradient id="SVGID_8_" gradientUnits="userSpaceOnUse" x1="-255.7933" y1="438.6214" x2="-255.3711" y2="438.1993" gradientTransform="matrix(278 0 0 -469 71109.7266 205813.2656)">
					<stop  offset="0" style="stop-color:#008D99"/>
					<stop  offset="1" style="stop-color:#00A5B2"/>
				</linearGradient>
				<polygon fill="url(#SVGID_8_)" points="2.8,98.3 8,131.2 8,98.1 				"/>
				
					<linearGradient id="SVGID_9_" gradientUnits="userSpaceOnUse" x1="-255.9254" y1="438.6507" x2="-255.5032" y2="438.2286" gradientTransform="matrix(334 0 0 -469 85517.7266 205813.2656)">
					<stop  offset="0" style="stop-color:#008994"/>
					<stop  offset="1" style="stop-color:#00A1AD"/>
				</linearGradient>
				<polygon fill="url(#SVGID_9_)" points="120.3,93.7 62.1,226 109,253.1 174.3,219.9 				"/>
				
					<linearGradient id="SVGID_10_" gradientUnits="userSpaceOnUse" x1="-256.0378" y1="438.5383" x2="-255.6156" y2="438.1162" gradientTransform="matrix(334 0 0 -469 85517.7266 205813.2656)">
					<stop  offset="0" style="stop-color:#008994"/>
					<stop  offset="1" style="stop-color:#00A1AD"/>
				</linearGradient>
				<polygon fill="url(#SVGID_10_)" points="59.3,232.6 56.4,239.1 93.9,260.8 101.5,257 				"/>
				
					<linearGradient id="SVGID_11_" gradientUnits="userSpaceOnUse" x1="-255.7997" y1="439.3076" x2="-255.3776" y2="438.8855" gradientTransform="matrix(334 0 0 -401 85517.7266 176325.5469)">
					<stop  offset="0" style="stop-color:#00AAB8"/>
					<stop  offset="1" style="stop-color:#01A8B5"/>
				</linearGradient>
				<polygon fill="url(#SVGID_11_)" points="109,253.1 120.6,259.8 171,230.7 174.3,219.9 				"/>
				
					<linearGradient id="SVGID_12_" gradientUnits="userSpaceOnUse" x1="-255.8336" y1="439.2738" x2="-255.4115" y2="438.8517" gradientTransform="matrix(334 0 0 -401 85517.7266 176325.5469)">
					<stop  offset="0" style="stop-color:#00AAB8"/>
					<stop  offset="1" style="stop-color:#01A8B5"/>
				</linearGradient>
				<polygon fill="url(#SVGID_12_)" points="167.9,240.6 120.6,268 101.5,257 93.9,260.8 120.6,276.2 164.8,250.6 				"/>
				
					<linearGradient id="SVGID_13_" gradientUnits="userSpaceOnUse" x1="-254.902" y1="438.198" x2="-254.4799" y2="437.7759" gradientTransform="matrix(151 0 0 -888 38446.0352 388940.8438)">
					<stop  offset="0" style="stop-color:#009AA6"/>
					<stop  offset="1" style="stop-color:#01A1AE"/>
				</linearGradient>
				<polygon fill="url(#SVGID_13_)" points="1,69.1 1,104.2 2.9,98.3 				"/>
				
					<linearGradient id="SVGID_14_" gradientUnits="userSpaceOnUse" x1="-255.2504" y1="438.7381" x2="-254.8279" y2="438.3156" gradientTransform="matrix(223 0 0 -463 56878.2266 203196)">
					<stop  offset="0" style="stop-color:#0196A2"/>
					<stop  offset="1" style="stop-color:#047F88"/>
				</linearGradient>
				<polygon fill="url(#SVGID_14_)" points="8,203 8,131.2 2.9,98.3 1,104.2 1,207.1 21.9,219.2 20.5,210.2 				"/>
				
					<linearGradient id="SVGID_15_" gradientUnits="userSpaceOnUse" x1="-255.259" y1="438.7299" x2="-254.8369" y2="438.3077" gradientTransform="matrix(223 0 0 -463 56878.2266 203196)">
					<stop  offset="0" style="stop-color:#0196A2"/>
					<stop  offset="1" style="stop-color:#047F88"/>
				</linearGradient>
				<polygon fill="url(#SVGID_15_)" points="15,198.9 18.9,201.2 15,176.4 				"/>
				
					<linearGradient id="SVGID_16_" gradientUnits="userSpaceOnUse" x1="-256.168" y1="439.2187" x2="-255.7458" y2="438.7965" gradientTransform="matrix(457 0 0 -402 117216.5234 176762.5938)">
					<stop  offset="0" style="stop-color:#00939D"/>
					<stop  offset="1" style="stop-color:#03B9C6"/>
				</linearGradient>
				<polygon fill="url(#SVGID_16_)" points="167.9,240.6 164.8,250.6 218.3,219.8 204,219.8 				"/>
				
					<linearGradient id="SVGID_17_" gradientUnits="userSpaceOnUse" x1="-256.1678" y1="439.2188" x2="-255.7457" y2="438.7966" gradientTransform="matrix(457 0 0 -402 117216.5234 176762.5938)">
					<stop  offset="0" style="stop-color:#00939D"/>
					<stop  offset="1" style="stop-color:#03B9C6"/>
				</linearGradient>
				<polygon fill="url(#SVGID_17_)" points="174.3,219.9 171,230.7 189.7,219.8 				"/>
				
					<linearGradient id="SVGID_18_" gradientUnits="userSpaceOnUse" x1="-256.6467" y1="439.0443" x2="-256.2246" y2="438.6223" gradientTransform="matrix(137 0 0 -299 35290.9844 131345.8281)">
					<stop  offset="0" style="stop-color:#14BCC9"/>
					<stop  offset="1" style="stop-color:#08BCCB"/>
				</linearGradient>
				<polygon fill="url(#SVGID_18_)" points="120.3,93.7 174.3,219.9 178.1,123.2 				"/>
				
					<linearGradient id="SVGID_19_" gradientUnits="userSpaceOnUse" x1="-256.3787" y1="438.3585" x2="-255.9566" y2="437.9364" gradientTransform="matrix(331 0 0 -327 84955.7188 143354.0938)">
					<stop  offset="0" style="stop-color:#008B93"/>
					<stop  offset="1" style="stop-color:#00A1AD"/>
				</linearGradient>
				<polygon fill="url(#SVGID_19_)" points="178.1,123.2 210.6,68.4 177.4,49.3 120.3,93.7 				"/>
				
					<linearGradient id="SVGID_20_" gradientUnits="userSpaceOnUse" x1="-256.2786" y1="438.4585" x2="-255.8565" y2="438.0364" gradientTransform="matrix(331 0 0 -327 84955.7188 143354.0938)">
					<stop  offset="0" style="stop-color:#008B93"/>
					<stop  offset="1" style="stop-color:#00A1AD"/>
				</linearGradient>
				<polygon fill="url(#SVGID_20_)" points="214.2,62.3 217.8,56.2 189.5,39.9 183.5,44.6 				"/>
				
					<linearGradient id="SVGID_21_" gradientUnits="userSpaceOnUse" x1="-256.6017" y1="439.3483" x2="-256.1801" y2="438.9267" gradientTransform="matrix(333 0 0 -229 85595.7266 100752.6641)">
					<stop  offset="0" style="stop-color:#05B6C5"/>
					<stop  offset="1" style="stop-color:#15BDCC"/>
				</linearGradient>
				<polygon fill="url(#SVGID_21_)" points="233,203.1 233,203.1 204,219.8 218.2,219.8 240,207.1 240,166.9 233,161.9 				"/>
				
					<linearGradient id="SVGID_22_" gradientUnits="userSpaceOnUse" x1="-256.6232" y1="439.3271" x2="-256.2005" y2="438.9043" gradientTransform="matrix(333 0 0 -229 85595.7266 100752.6641)">
					<stop  offset="0" style="stop-color:#05B6C5"/>
					<stop  offset="1" style="stop-color:#15BDCC"/>
				</linearGradient>
				<polygon fill="url(#SVGID_22_)" points="174.3,219.9 189.7,219.9 226,199.1 226,199.1 226,156.9 178.2,123.2 				"/>
				
					<linearGradient id="SVGID_23_" gradientUnits="userSpaceOnUse" x1="-256.8306" y1="438.3083" x2="-256.4081" y2="437.8858" gradientTransform="matrix(254 0 0 -327 65380.3672 143354.0938)">
					<stop  offset="0" style="stop-color:#00AEBC"/>
					<stop  offset="1" style="stop-color:#00B5C1"/>
				</linearGradient>
				<polygon fill="url(#SVGID_23_)" points="226,104.6 226,77.3 210.6,68.4 178.2,123.2 				"/>
				
					<linearGradient id="SVGID_24_" gradientUnits="userSpaceOnUse" x1="-256.7401" y1="438.3986" x2="-256.3184" y2="437.9768" gradientTransform="matrix(254 0 0 -327 65380.3672 143354.0938)">
					<stop  offset="0" style="stop-color:#00AEBC"/>
					<stop  offset="1" style="stop-color:#00B5C1"/>
				</linearGradient>
				<polygon fill="url(#SVGID_24_)" points="233,73.2 233,101.8 240,99.1 240,69.1 217.8,56.2 214.2,62.3 				"/>
				
					<linearGradient id="SVGID_25_" gradientUnits="userSpaceOnUse" x1="-256.5637" y1="438.8272" x2="-256.1415" y2="438.405" gradientTransform="matrix(324 0 0 -327 83300.6797 143582.0938)">
					<stop  offset="0" style="stop-color:#4AC4DA"/>
					<stop  offset="1" style="stop-color:#36C0D3"/>
				</linearGradient>
				<polygon fill="url(#SVGID_25_)" points="226,156.9 226,104.6 178.2,123.2 				"/>
				
					<linearGradient id="SVGID_26_" gradientUnits="userSpaceOnUse" x1="-256.5359" y1="438.855" x2="-256.1143" y2="438.4334" gradientTransform="matrix(324 0 0 -327 83300.6797 143582.0938)">
					<stop  offset="0" style="stop-color:#4AC4DA"/>
					<stop  offset="1" style="stop-color:#36C0D3"/>
				</linearGradient>
				<polygon fill="url(#SVGID_26_)" points="233,161.9 240,166.9 240,99.1 233,101.8 				"/>
			</g>
		</g>
		<g id="Lines-3">
			<g>
				<polygon opacity="0.2" fill="#FFFFFF" enable-background="new    " points="76.7,33.6 72.5,27.8 71.3,28.5 75.5,34.3 				"/>
				<polygon opacity="0.2" fill="#FFFFFF" enable-background="new    " points="1.6,68.7 1,69.1 1,79.8 2.2,97.6 2.1,97.6 2.2,98.3 
					1,102 1,106.5 2.6,101.3 8,135.7 8,126.8 3.6,99 8,98.8 8,97.4 3.5,97.6 				"/>
				<polygon opacity="0.2" fill="#FFFFFF" enable-background="new    " points="15,180.9 18.2,200.7 19.7,201.6 15,171.9 				"/>
				<polygon opacity="0.2" fill="#FFFFFF" enable-background="new    " points="19.7,209.8 21.2,218.8 22.7,219.7 21.3,210.7 				
					"/>
				<polygon opacity="0.2" fill="#FFFFFF" enable-background="new    " points="218.4,56.6 217.2,55.9 213.6,62 214.8,62.7 				"/>
				<polygon opacity="0.2" fill="#FFFFFF" enable-background="new    " points="190.2,40.3 188.9,39.5 182.8,44.2 184.1,45 				"/>
				<path opacity="0.2" fill="#FFFFFF" enable-background="new    " d="M179.8,121.8L196.8,93l14.4-24.2l-1.2-0.7l-32.1,54.1
					l-0.4-0.3l0,0.2l-29-14.8l-26.9-13.7l56.5-43.9l-1.3-0.8l-56.2,43.6l-0.3-0.6l-0.2,0.4L81,39.3L79.8,40l39.1,53L15,97.1v1.4
					l104.1-4.1L91,158.6l-29.5,67.1l1.2,0.7l57.5-131l53.1,124.1l-65.1,33.1l1.4,0.8l63.4-32.3l-3.1,9.9l1.8-1l2.5-8.2l0.5,1.1
					l0.1-2.4l13.5,0l2.4-1.4l-15.7,0l0.2-0.7l-0.4,0.2l3.7-94.2l47.2,33.2V156l-24.3-17.1l-22-15.5l46.4-18.1v-1.5l-15.9,6.2
					L179.8,121.8z M173.7,216.8L121.7,95.2l26.5,13.6l28.9,14.8l-0.7,1.1l0.9-0.3L173.7,216.8z"/>
				<polygon opacity="0.2" fill="#FFFFFF" enable-background="new    " points="202.8,220.5 217,220.5 219.5,219.1 205.2,219.1 				
					"/>
				<polygon opacity="0.2" fill="#FFFFFF" enable-background="new    " points="233,162.7 240,167.7 240,166 233,161 				"/>
				<polygon opacity="0.2" fill="#FFFFFF" enable-background="new    " points="233,101.1 233,102.6 240,99.8 240,98.3 				"/>
				<polygon opacity="0.2" fill="#FFFFFF" enable-background="new    " points="55.8,238.8 57,239.5 59.9,232.9 58.7,232.2 				"/>
				<polygon opacity="0.2" fill="#FFFFFF" enable-background="new    " points="163.9,251.1 165.7,250.1 168.8,240.1 167,241.2 				
					"/>
				<polygon opacity="0.2" fill="#FFFFFF" enable-background="new    " points="93.2,260.4 94.7,261.2 102.2,257.4 100.8,256.5 				
					"/>
			</g>
		</g>
		<g id="Lines-2">
			<path opacity="0.2" fill="#FFFFFF" enable-background="new    " d="M1,153.7v-1.8l7-6v1.8L1,153.7z M240,80.8v-1.6l-7-4.1v1.6
				l0,0L240,80.8z M137.9,26.5l-3-1.7l-24.2-2.6l-2.1,1.2L137.9,26.5z M1,202.4v2.5l2.6,3.8l2.8,1.6L1,202.4z M149.1,16.5l-0.6,7.8
				l2.2,1.3l3.9-6l-1.2-0.7l-3.4,5.3l0.5-7L149.1,16.5z M240,136.3l-7,0.9v1.4l7-0.9V136.3z M28.9,215.1l29.7,25.3l6.6,3.8
				l-29.7-25.3L28.9,215.1z M98.7,20.9l-12-1.3l-2.1,1.2l12,1.3L98.7,20.9z M8,197.3v-1.8l-7-6.1v1.8l6.2,5.3L8,197.3z M15,139.8
				v1.8L145.4,30.8l-1.2-0.7l-84.9,72.2L15,139.8z M84.5,158.3L226,139.6v-1.4l-9.8,1.3L15,166v1.4L84.5,158.3z M1,169.3l7-0.9V167
				l-7,0.9V169.3z"/>
		</g>
		<g id="Lines-1">
			<g>
				<polygon opacity="0.3" fill="#FFFFFF" enable-background="new    " points="1,171.2 1,176.5 4.9,190.7 2.6,188.7 4.4,191.3 
					1,190.1 1,191.6 3,192.3 1,192.5 1,193.9 4,193.6 3.9,193.7 5.7,193.4 5.8,193.9 6,193.7 8,196.7 8,193.4 7.8,193.2 8,193.2 
					8,190.1 6.5,191.4 				"/>
				<polygon opacity="0.3" fill="#FFFFFF" enable-background="new    " points="102.6,10.4 81.3,22.7 24,60.3 1,75.4 1,77 23,62.6 
									"/>
				<polygon opacity="0.3" fill="#FFFFFF" enable-background="new    " points="120.6,0.1 119.9,0.4 121.1,0.4 				"/>
				<polygon opacity="0.3" fill="#FFFFFF" enable-background="new    " points="224.1,59.8 220.3,57.6 198.5,53.3 202.3,55.5 				
					"/>
				<polygon opacity="0.3" fill="#FFFFFF" enable-background="new    " points="1,94.3 8,95.1 8,93.7 1,92.9 				"/>
				<polygon opacity="0.3" fill="#FFFFFF" enable-background="new    " points="175.5,31.8 174,30.9 166.3,34.7 167.8,35.5 				"/>
				<polygon opacity="0.3" fill="#FFFFFF" enable-background="new    " points="117.9,1.9 123.7,10.1 126.6,11.7 119,1 116.5,2.4 
					115.8,11 117.2,10.2 				"/>
				<polygon opacity="0.3" fill="#FFFFFF" enable-background="new    " points="233,146.6 240,139.8 240,137.8 233,144.7 				"/>
				<polygon opacity="0.3" fill="#FFFFFF" enable-background="new    " points="233,94.7 233,99.5 240,75.9 240,71.1 				"/>
				<polygon opacity="0.3" fill="#FFFFFF" enable-background="new    " points="233,181.9 240,187.3 240,185.5 233,180.1 				"/>
				<polygon opacity="0.3" fill="#FFFFFF" enable-background="new    " points="36.5,219.4 66.2,244.8 72.8,248.6 43.1,223.3 				
					"/>
				<polygon opacity="0.3" fill="#FFFFFF" enable-background="new    " points="15.4,207.2 24.7,220.8 27.5,222.4 18.2,208.8 				
					"/>
				<path opacity="0.3" fill="#FFFFFF" enable-background="new    " d="M149.9,45l30.7,6.1l-3.8-2.2l-26-5.2l9.3-4.5l-1.5-0.8
					l-9.7,4.7l-0.2-0.5l-0.1,0.1l-12.1-17.1l-2.9-1.7l14,19.8l-1.1,0.5l1,0.2l-18.4,28.4L110,102.5l6.6-83.7l-1.5,0.8l-6.8,84.8
					L15,94.4v1.4l92.3,9.9l-52.3,44.5L15,184.1v1.8l93.1-79.1l0,1.1l1.2-1.8l49.5,28.8l51.6,30l-43,5.7L15,190.8v1.4l99.6-13.2
					l96.8-12.8l-17.5,51.2l1.9-1.1l16.8-49.2l0,0.1l0.2-0.7l13.1,9.9v-1.8l-11.7-8.9l0.3,0l-0.9-0.6l12.3-11.8v-1.9L214,163l12-39.9
					v-4.8l-13.6,45.2L149.9,45z M110.2,105.1l0.5-0.4l-0.5-0.1l19.5-30.2l18.8-29.1l62.2,118.2L110.2,105.1z"/>
				<polygon opacity="0.3" fill="#FFFFFF" enable-background="new    " points="187,237.8 188.8,236.8 192.3,226.5 190.5,227.6 				
					"/>
			</g>
		</g>
		<g id="Circules">
			<path opacity="0.77" fill="#FFFFFF" enable-background="new    " d="M1,189.7c0.6-0.4,1.2-0.6,1.9-0.6c2,0,3.6,1.6,3.6,3.5
				c0,1.9-1.6,3.5-3.6,3.5c-0.7,0-1.4-0.2-1.9-0.6C1,195.6,1,189.7,1,189.7z M115.3,3.1c0.6,0.4,1.3,0.7,2.1,0.7
				c2,0,3.6-1.6,3.6-3.5c0,0,0,0,0,0l-0.3-0.2L115.3,3.1z M105.5,104.7c0,1.9,1.6,3.5,3.6,3.5s3.6-1.6,3.6-3.5s-1.6-3.5-3.6-3.5
				S105.5,102.8,105.5,104.7z M177,220.4c0-2.6-2.2-4.8-4.9-4.8s-4.9,2.1-4.9,4.8s2.2,4.8,4.9,4.8S177,223,177,220.4z M216,165.4
				c0-1.9-1.6-3.5-3.6-3.5s-3.6,1.6-3.6,3.5s1.6,3.5,3.6,3.5S216,167.3,216,165.4z"/>
		</g>
		<g id="cat_face">
			<g>
				<g>
					<g>
						<path fill="#FFFFFF" d="M72.5,185.2l4.4,18.3l0.4,1.9l0.3-1.9l4.7-18.6h4.8L80,210.2h-4.9l-5-18.6l-0.3-1.5l-0.3,1.4l-5,18.7
							h-5l-7.2-25.3h4.8l4.7,18.6l0.3,1.9l0.4-1.9l4.5-18.3L72.5,185.2L72.5,185.2z"/>
						<path fill="#FFFFFF" d="M92.6,204.7l-1.8,5.5h-4.9l9.1-25.3h4.9l9.1,25.3h-5.1l-6.3-18.9l-0.3-1.3l-0.3,1.4l-3,9.1l-0.4,0.7
							l0.5-0.1h2.7c0.5,0,0.9,0.2,1.3,0.4s0.7,0.5,1,0.8c0.3,0.4,0.5,0.8,0.7,1.1c0.2,0.5,0.4,0.8,0.5,1.2L92.6,204.7L92.6,204.7z"
							/>
						<path fill="#FFFFFF" d="M119.6,198.4v11.8h-4.8v-11.2l-8.7-14.1h5.4L119.6,198.4z M122.7,184.9h5.4l-7.4,12.2
							c-0.2-0.3-0.5-0.7-0.8-1.1c-0.2-0.5-0.5-1-0.7-1.5c-0.2-0.5-0.2-1.1-0.3-1.8c0-0.6,0.2-1.2,0.5-1.8L122.7,184.9z"/>
						<path fill="#FFFFFF" d="M144.9,192.1c0,1.1-0.3,2.3-0.9,3.5s-1.4,2.5-2.3,3.7c-0.9,1.2-1.9,2.4-2.9,3.5s-1.9,2.2-2.7,3.1
							l-0.5,0.6l0.8-0.1h9.1v3.8h-16v-2.1c0.3-0.8,0.8-1.6,1.5-2.5c0.6-0.8,1.4-1.8,2.1-2.7c0.8-0.9,1.6-1.8,2.4-2.8
							c0.8-0.9,1.5-1.9,2.2-2.8s1.2-1.8,1.7-2.7c0.5-0.8,0.6-1.6,0.6-2.4c0-1.1-0.4-2-1.1-2.5c-0.8-0.6-1.7-0.9-2.8-0.9
							c-0.5,0-1.1,0.1-1.9,0.2s-1.5,0.5-2.5,0.8l-1.2-3.2c1.2-0.5,2.2-0.9,3.2-1.1s1.9-0.3,2.7-0.3c1.4,0,2.5,0.2,3.6,0.5
							c1.1,0.3,2,0.8,2.8,1.3c0.8,0.6,1.4,1.3,1.8,2.1C144.6,190.1,144.9,191,144.9,192.1z"/>
						<path fill="#FFFFFF" d="M160.6,210.7c-2.1,0-4.1-0.3-5.8-1c-1.7-0.7-3.1-1.6-4.2-2.8c-1.1-1.2-2-2.6-2.6-4.1
							c-0.6-1.6-0.9-3.3-0.9-5.1s0.3-3.5,0.9-5.1c0.6-1.6,1.5-3,2.7-4.1c1.2-1.1,2.6-2.1,4.2-2.8c1.7-0.7,3.5-1,5.7-1
							c1,0,2,0.1,3,0.3c1,0.2,2.1,0.5,3.1,0.9l-1.2,3.2c-1-0.3-1.9-0.5-2.6-0.6c-0.7-0.2-1.5-0.2-2.3-0.2c-1.4,0-2.6,0.3-3.6,0.8
							c-1,0.5-1.8,1.2-2.5,2.1c-0.7,0.9-1.1,1.9-1.5,3.1c-0.3,1.1-0.5,2.3-0.5,3.5s0.2,2.4,0.5,3.5c0.3,1.1,0.8,2.1,1.5,3.1
							s1.5,1.6,2.5,2.1c1,0.5,2.2,0.8,3.6,0.8c1.5,0,3.1-0.4,4.8-1.1l1.3,3.1c-1.1,0.5-2.1,0.9-3.1,1.2
							C162.6,210.6,161.6,210.7,160.6,210.7z"/>
						<path fill="#FFFFFF" d="M178.7,210.7c-1.5,0-3-0.2-4.2-0.7c-1.2-0.5-2.3-1.1-3.2-1.9c-0.8-0.8-1.5-1.9-2-3.2s-0.7-2.8-0.7-4.4
							v-15.6h4.9v16.2c0,0.9,0.2,1.8,0.4,2.5s0.6,1.4,1.1,1.9s1,0.9,1.7,1.2c0.6,0.3,1.3,0.4,2.1,0.4s1.5-0.2,2.1-0.4
							c0.6-0.3,1.2-0.7,1.7-1.2c0.5-0.5,0.8-1.1,1.1-1.9c0.2-0.8,0.4-1.6,0.4-2.5v-16.2h4.9v15.6c0,1.5-0.2,2.9-0.7,4.2
							c-0.5,1.2-1.1,2.3-2,3.2c-0.8,0.9-1.9,1.6-3.2,2.1C181.7,210.5,180.2,210.7,178.7,210.7z"/>
					</g>
				</g>
				<path fill="#FFFFFF" d="M120,167.8c27.2,0,58.9-12.2,62.1-43.4c0.7-7-4.2-35.4-25-58.9l-18.5,24h-37.3l-18.5-24
					c-20.8,23.5-25.7,52-25,58.9C61.1,155.6,92.9,167.8,120,167.8"/>
				<g>
					<path d="M122.3,147.4l4.8-7c0.9-1.3,0.5-3.1-0.9-3.9c-1.8-1-3.9-1.5-6.1-1.5s-4.3,0.5-6.1,1.5c-1.5,0.8-1.8,2.6-0.9,3.9l4.8,7
						C118.9,149,121.2,149,122.3,147.4z"/>
					<g>
						<path d="M131.5,156.3c-5,0-9.4-2.9-11.5-7.2c-2.1,4.3-6.5,7.2-11.5,7.2c-3.1,0-6-1.1-8.4-3.1c-0.5-0.4-0.5-1.1-0.2-1.5
							c0.4-0.5,1.1-0.5,1.5-0.2c1.9,1.7,4.4,2.5,6.9,2.5c5.1,0,9.5-3.7,10.4-8.7c0.1-0.5,0.5-0.9,1.1-0.9c0.5,0,1,0.4,1.1,0.9
							c0.9,5.1,5.3,8.7,10.4,8.7c2.6,0,5.1-0.8,6.9-2.5c0.5-0.4,1.1-0.3,1.5,0.2c0.4,0.5,0.3,1.1-0.2,1.5
							C137.6,155.3,134.7,156.3,131.5,156.3z"/>
					</g>
					<path d="M181.1,113.3c-1.5,0.4-3,0.8-4.7,1.2c-15,3.5-35.1,5.4-56.4,5.4s-41.3-1.9-56.4-5.4c-1.7-0.4-3.2-0.8-4.7-1.2
						c-0.2,1.2-0.5,2.2-0.6,3.3c3.1,0.8,6.4,1.5,9.8,2.2c0.7,9.1,9.5,16.3,20.4,16.5c9.4,0.2,17.4-5.1,19.9-12.3
						c3.8,0.2,7.6,0.2,11.4,0.2c3.1,0,6.3-0.1,9.4-0.2c2.6,7.2,10.6,12.4,19.9,12.3c10.7-0.2,19.5-7.2,20.3-16.1
						c4.3-0.8,8.3-1.6,11.9-2.6C181.5,115.5,181.3,114.5,181.1,113.3z"/>
				</g>
			</g>
		</g>
	</g>
</g>
</svg>
